<svg width="150" height="61" viewBox="0 0 150 61" fill="none" xmlns="http://www.w3.org/2000/svg">
<g id="Clipboard 2" clip-path="url(#clip0_1_42)">
<g id="Group">
<g id="Group_2">
<g id="Group_3">
<g id="Group_4">
<g id="Group_5">
<path id="Vector" d="M136.419 43.4052L135.349 53.1951L10.9225 56.1411L11.1 54.9017L136.419 43.4052Z" fill="#F9F9F9"/>
</g>
</g>
</g>
<g id="Group_6">
<g id="Group_7">
<path id="Vector_2" d="M28.1282 32.6191C28.0733 33.1019 27.859 33.556 27.4854 33.9814C27.112 34.407 26.6509 34.6459 26.1035 34.6988L22.2828 35.0667C22.0087 35.0929 21.7858 35.0268 21.6147 34.867C21.4431 34.708 21.3721 34.501 21.4011 34.2466L21.6008 32.4935C21.6297 32.24 21.7502 32.0145 21.9622 31.8178C22.1738 31.6222 22.4169 31.5103 22.691 31.484L26.5939 31.1082C26.9495 31.0741 27.3075 31.2031 27.6672 31.4948C28.0262 31.7871 28.1804 32.1617 28.1282 32.6191ZM20.8375 41.6891C21.049 41.4931 21.2921 41.3813 21.5664 41.355L25.88 40.9397C26.5919 40.8711 27.1331 41.0517 27.5046 41.4807C27.8753 41.9101 28.0349 42.3529 27.9828 42.8102C27.9249 43.3189 27.6548 43.7844 27.1734 44.2075C26.6917 44.6308 26.2045 44.8663 25.7118 44.9137L21.1104 45.3567C20.8362 45.383 20.6133 45.3167 20.4423 45.1572C20.2705 44.9982 20.1995 44.7913 20.2285 44.5371L20.476 42.3647C20.5049 42.111 20.6252 41.8857 20.8375 41.6891ZM36.9096 30.7934C37.0717 29.3708 36.9274 28.1974 36.4779 27.2728C36.0276 26.3491 35.3784 25.6261 34.5307 25.1045C33.6824 24.583 32.6711 24.2469 31.4966 24.096C30.3215 23.9455 29.0774 23.9335 27.7626 24.0602L15.3558 25.2544C15.0817 25.2807 14.8385 25.3928 14.6269 25.5885C14.4146 25.7851 14.2945 26.0106 14.2656 26.2641L11.2952 52.3329C11.2663 52.587 11.3371 52.794 11.509 52.9533C11.68 53.1126 11.9029 53.179 12.1771 53.1525L25.2002 51.8985C26.5694 51.7667 27.8922 51.5074 29.169 51.121C30.4454 50.7341 31.5998 50.1705 32.6326 49.4303C33.6649 48.6901 34.5232 47.7535 35.208 46.6191C35.8921 45.4854 36.3288 44.0929 36.5169 42.441C36.6096 41.6279 36.5752 40.9151 36.4154 40.3021C36.2548 39.6898 36.0173 39.1596 35.7026 38.7122C35.3879 38.2657 35.0298 37.8977 34.6295 37.6097C34.2287 37.3216 33.8222 37.084 33.4104 36.8976C32.8911 36.6967 32.8975 36.4068 33.4282 36.0286C34.1951 35.4777 34.9348 34.7528 35.6465 33.8552C36.3582 32.9574 36.7793 31.9369 36.9096 30.7934Z" fill="#F9F9F9"/>
</g>
</g>
<g id="Group_8">
<g id="Group_9">
<path id="Vector_3" d="M40.9577 24.9896L38.1366 49.749C38.1076 50.0032 38.1636 50.2118 38.3044 50.3737C38.4452 50.5362 38.6516 50.6041 38.924 50.5778L44.5356 50.0375C44.7831 50.0138 45.0037 49.9048 45.1973 49.7103C45.3909 49.5158 45.5024 49.2914 45.5315 49.0373L48.259 25.0989C47.3755 26.0943 46.0907 26.7259 44.6581 26.7259C43.1722 26.7259 41.8424 26.0495 40.9577 24.9896Z" fill="#F9F9F9"/>
</g>
</g>
<g id="Group_10">
<g id="Group_11">
<path id="Vector_4" d="M74.3639 46.2604L77.3342 20.1916C77.363 19.9381 77.3 19.7303 77.1464 19.5689C76.9923 19.4082 76.7903 19.3396 76.5418 19.3631L71.0144 19.8953C70.7654 19.9195 70.5433 20.0293 70.3493 20.2233C70.1544 20.4183 70.043 20.6429 70.014 20.8966L68.4594 34.5404C68.4304 34.7948 68.3333 34.9426 68.1688 34.983C68.0035 35.0243 67.8585 34.9506 67.7323 34.7613L59.6157 21.7091C59.4894 21.5205 59.297 21.3694 59.0394 21.2557C58.7809 21.1427 58.5276 21.0977 58.2788 21.1216L52.6767 21.6609C52.4277 21.6849 52.2055 21.7949 52.0115 21.9889C51.8167 22.1839 51.7051 22.4085 51.6762 22.6621L48.7058 48.7307C48.6768 48.9851 48.7397 49.1928 48.8947 49.3532C49.0495 49.5146 49.2522 49.5828 49.5027 49.5585L55.0956 49.0201C55.3453 48.9962 55.5684 48.8869 55.7638 48.692C55.9591 48.4977 56.0717 48.2732 56.1008 48.0187L57.6554 34.3746C57.6843 34.1209 57.7814 33.9665 57.9474 33.913C58.1128 33.8591 58.2593 33.9271 58.3856 34.1157L66.5191 47.1664C66.6455 47.3555 66.8363 47.513 67.0923 47.6388C67.3478 47.765 67.6002 47.8162 67.8487 47.7922L73.365 47.2611C73.6136 47.2371 73.8349 47.1282 74.029 46.9331C74.2233 46.7391 74.3349 46.5145 74.3639 46.2604Z" fill="#F9F9F9"/>
</g>
</g>
<g id="Group_12">
<g id="Group_13">
<path id="Vector_5" d="M106.819 30.4898C106.89 29.8673 106.925 29.3428 106.925 28.9154C106.931 28.6385 106.851 28.4267 106.683 28.2789C106.516 28.1318 106.306 28.07 106.058 28.094L93.2104 29.331C92.9612 29.355 92.7389 29.4649 92.5449 29.6589C92.3501 29.8539 92.2385 30.0782 92.2097 30.3322L91.6931 34.8674C91.664 35.1218 91.7262 35.3297 91.8806 35.4901C92.0342 35.6513 92.2359 35.72 92.4852 35.696L96.7803 35.2822C97.0289 35.2583 97.1938 35.3243 97.2748 35.4796C97.3549 35.6355 97.3218 35.8209 97.1745 36.0358C96.5339 36.902 95.7326 37.5569 94.7711 38.0011C93.8092 38.446 92.8554 38.7134 91.9092 38.8045C90.9627 38.8957 90.0953 38.7848 89.3062 38.4707C88.5166 38.1576 87.8479 37.7065 87.2995 37.1186C86.7505 36.5306 86.3449 35.8223 86.0825 34.9929C85.8199 34.1641 85.7437 33.267 85.8537 32.301C85.9608 31.3614 86.2446 30.4353 86.7057 29.5239C87.1664 28.6127 87.7456 27.797 88.4438 27.0761C89.141 26.3558 89.9294 25.7587 90.8086 25.284C91.6875 24.8101 92.5999 24.5273 93.5466 24.4361C94.8658 24.3093 95.9718 24.4919 96.864 24.9838C97.7554 25.4764 98.5325 26.1677 99.1947 27.0587C99.3454 27.2457 99.5436 27.3455 99.7881 27.3596C100.033 27.3737 100.262 27.3079 100.476 27.1614L105.292 23.7953C105.505 23.6492 105.659 23.4397 105.751 23.1669C105.844 22.8939 105.839 22.6626 105.738 22.4707C104.697 20.5862 103.227 19.1693 101.328 18.2215C99.4287 17.2733 97.1101 16.9312 94.3716 17.195C92.379 17.3867 90.4683 17.9475 88.6393 18.8777C86.809 19.8077 85.1663 20.99 83.7103 22.4241C82.2537 23.859 81.046 25.4891 80.0868 27.3153C79.1272 29.1416 78.5353 31.0456 78.3095 33.0274C78.0837 35.0093 78.25 36.8401 78.8101 38.5203C79.3696 40.2004 80.2294 41.6254 81.389 42.7952C82.5485 43.9653 83.9561 44.8473 85.6122 45.4419C87.268 46.0362 89.0917 46.2375 91.0842 46.0456C92.9015 45.8708 94.6548 45.3937 96.3445 44.6158C98.0336 43.8377 99.5695 42.8417 100.951 41.628C102.333 40.4146 103.508 39.0199 104.476 37.4436C105.443 35.8681 106.114 34.1951 106.488 32.4252C106.638 31.7576 106.748 31.1126 106.819 30.4898Z" fill="#F9F9F9"/>
</g>
</g>
<g id="Group_14">
<g id="Group_15">
<path id="Vector_6" d="M130.364 27.9777C130.254 28.9437 129.963 29.8763 129.492 30.7755C129.02 31.6757 128.414 32.4878 127.673 33.2125C126.931 33.9374 126.099 34.539 125.175 35.0173C124.251 35.4962 123.296 35.7824 122.31 35.8773C121.324 35.9722 120.414 35.8656 119.58 35.5559C118.746 35.2468 118.04 34.7937 117.463 34.1956C116.884 33.5979 116.459 32.8853 116.184 32.0569C115.91 31.2294 115.828 30.3327 115.938 29.3668C116.045 28.4271 116.334 27.5004 116.808 26.5878C117.28 25.6754 117.88 24.8638 118.607 24.1532C119.333 23.4423 120.159 22.848 121.083 22.369C122.006 21.891 122.961 21.6041 123.947 21.5092C124.933 21.4143 125.843 21.5217 126.677 21.8303C127.512 22.1402 128.225 22.5863 128.817 23.1701C129.409 23.7538 129.842 24.4661 130.115 25.3066C130.388 26.1473 130.471 27.0381 130.364 27.9777ZM137.716 21.7289C137.117 20.0528 136.205 18.6267 134.982 17.4498C133.759 16.2738 132.272 15.3929 130.521 14.8075C128.77 14.2223 126.855 14.0297 124.777 14.2298C122.699 14.43 120.697 14.9996 118.772 15.9386C116.847 16.878 115.13 18.0674 113.623 19.5064C112.115 20.9461 110.861 22.5806 109.863 24.4106C108.864 26.2408 108.251 28.1469 108.025 30.1286C107.799 32.1105 107.986 33.9396 108.586 35.6156C109.185 37.2919 110.09 38.7191 111.299 39.8964C112.509 41.0745 113.989 41.9557 115.741 42.541C117.492 43.126 119.407 43.3186 121.485 43.1186C123.563 42.9186 125.565 42.3489 127.49 41.4097C129.415 40.4703 131.138 39.2809 132.659 37.8397C134.18 36.3995 135.44 34.7638 136.439 32.9339C137.438 31.1037 138.051 29.1978 138.277 27.2159C138.502 25.234 138.316 23.405 137.716 21.7289Z" fill="#F9F9F9"/>
</g>
</g>
<g id="Group_16">
<g id="Group_17">
<path id="Vector_7" d="M122.875 9.00228L126.668 8.47584L126.767 7.35747L124.16 7.71914L124.26 6.60077L126.594 6.27684L126.693 5.15834L124.36 5.48234L124.451 4.45722L126.922 4.11429L127.022 2.99585L123.365 3.50294L122.875 9.00228ZM118.868 9.55811L122.251 9.08863L122.351 7.97032L120.154 8.27518L120.545 3.89428L119.359 4.05904L118.868 9.55811ZM116.35 7.74457L115.035 7.92684L115.841 6.12746L116.35 7.74457ZM112.711 10.4124L114.018 10.2311L114.571 9.00371L116.662 8.71369L117.021 9.81435L118.359 9.6288L116.508 4.45456L115.528 4.59068L112.711 10.4124ZM112.904 5.38443C112.695 5.20893 112.452 5.09687 112.176 5.04826C111.9 4.99966 111.61 4.99624 111.306 5.03856C111.042 5.0752 110.783 5.14836 110.528 5.25781C110.273 5.36727 110.044 5.5103 109.841 5.68696C109.637 5.86342 109.468 6.07105 109.334 6.30925C109.201 6.54772 109.12 6.81456 109.094 7.10964C109.067 7.41524 109.107 7.65248 109.214 7.82183C109.322 7.99097 109.464 8.1195 109.642 8.20736C109.819 8.29521 110.014 8.35763 110.226 8.39496C110.437 8.43188 110.634 8.47119 110.816 8.51249C110.997 8.55385 111.146 8.61353 111.261 8.69223C111.377 8.77085 111.428 8.89275 111.413 9.05854C111.404 9.15679 111.372 9.24587 111.318 9.32484C111.263 9.40401 111.194 9.47231 111.112 9.52981C111.029 9.58737 110.937 9.63468 110.836 9.67153C110.735 9.70866 110.637 9.73382 110.54 9.74715C110.343 9.7747 110.156 9.7559 109.979 9.69081C109.802 9.62593 109.66 9.519 109.553 9.3703L108.625 10.4347C108.862 10.6424 109.124 10.7798 109.414 10.847C109.703 10.9141 110.023 10.9238 110.372 10.8752C110.651 10.8367 110.919 10.7634 111.176 10.6561C111.434 10.5489 111.664 10.407 111.868 10.2304C112.071 10.054 112.239 9.84396 112.37 9.60064C112.502 9.35745 112.582 9.08302 112.609 8.77741C112.638 8.45649 112.6 8.20845 112.495 8.03391C112.391 7.85909 112.251 7.72769 112.076 7.63935C111.901 7.55143 111.71 7.49059 111.503 7.45811C111.296 7.4255 111.102 7.39104 110.923 7.35467C110.743 7.31823 110.597 7.26435 110.483 7.19318C110.369 7.12201 110.32 7.00367 110.334 6.83801C110.344 6.73443 110.377 6.64275 110.434 6.5631C110.491 6.48373 110.562 6.41631 110.647 6.36087C110.732 6.3059 110.822 6.2616 110.914 6.22803C111.008 6.1946 111.097 6.17203 111.183 6.16C111.331 6.13963 111.484 6.1479 111.643 6.18455C111.802 6.2214 111.925 6.29496 112.01 6.40606L112.904 5.38443ZM104.311 11.5783L108.104 11.0519L108.204 9.93345L105.597 10.2953L105.696 9.17655L108.03 8.85289L108.13 7.73445L105.797 8.05832L105.888 7.03327L108.358 6.69027L108.458 5.57162L104.802 6.07899L104.311 11.5783ZM100.305 12.1341L103.688 11.6647L103.788 10.5464L101.591 10.8513L101.981 6.47033L100.796 6.63502L100.305 12.1341ZM95.3796 9.40394C95.4773 9.17579 95.6067 8.97247 95.7681 8.79389C95.9291 8.61559 96.1163 8.46832 96.3293 8.35182C96.5424 8.23532 96.7757 8.15936 97.0292 8.12436C97.2824 8.08915 97.5079 8.10139 97.7052 8.16087C97.9025 8.22048 98.0677 8.31893 98.2006 8.45636C98.3334 8.59425 98.4294 8.7662 98.4888 8.97267C98.5481 9.17942 98.5662 9.40927 98.5436 9.66299C98.5204 9.9221 98.46 10.1644 98.362 10.3902C98.2643 10.6161 98.135 10.8181 97.974 10.9962C97.8128 11.1744 97.6258 11.3219 97.4127 11.4384C97.1997 11.5552 96.9664 11.6309 96.713 11.666C96.4597 11.7012 96.2342 11.6891 96.0369 11.6295C95.8395 11.5698 95.6741 11.4714 95.5415 11.3338C95.4083 11.1964 95.3124 11.0256 95.2532 10.8216C95.1936 10.6175 95.1754 10.3864 95.1987 10.1273C95.2212 9.87356 95.2814 9.63249 95.3796 9.40394ZM94.077 11.4641C94.1896 11.8014 94.3638 12.0777 94.5997 12.2928C94.836 12.5083 95.1254 12.6587 95.4682 12.7439C95.8109 12.8295 96.1923 12.8431 96.6131 12.7845C97.0338 12.7263 97.4276 12.6051 97.7945 12.4212C98.1609 12.2375 98.4851 12.0021 98.7656 11.7148C99.0466 11.428 99.2753 11.0957 99.4515 10.7183C99.6278 10.341 99.7358 9.93243 99.7748 9.49227C99.8142 9.05205 99.7776 8.66324 99.665 8.32591C99.5526 7.98878 99.3782 7.71285 99.1419 7.49742C98.9061 7.28227 98.6166 7.13186 98.274 7.04633C97.9312 6.96107 97.5497 6.94754 97.1287 7.00599C96.7083 7.06424 96.3145 7.18539 95.9478 7.36909C95.5811 7.55301 95.2572 7.78853 94.9762 8.07554C94.6956 8.36262 94.4667 8.69448 94.2905 9.07174C94.1144 9.44899 94.0063 9.85797 93.9673 10.2983C93.9279 10.7382 93.9645 11.127 94.077 11.4641ZM88.317 13.7978L89.5029 13.633L89.7149 11.2565L92.0183 10.9368L91.8061 13.3134L92.992 13.1489L93.4829 7.64988L92.2971 7.81438L92.1138 9.86488L89.8106 10.1845L89.9935 8.13407L88.8078 8.29849L88.317 13.7978ZM81.825 14.6986L82.8435 14.5572L84.3691 10.5868L84.3844 10.5847L85.2305 14.226L86.2872 14.0794L88.3515 8.36187L87.1506 8.52835L85.923 12.2734L85.9075 12.2755L85.1131 8.81125L84.0108 8.96419L82.5713 12.6464L82.5557 12.6486L82.0117 9.2417L80.7192 9.4209L81.825 14.6986Z" fill="#F9F9F9"/>
</g>
</g>
<g id="Group_18">
<g id="Group_19">
<g id="Group_20">
<path id="Vector_8" d="M149.946 50.5803V6.64369C149.946 2.02623 146.702 0.381226 143.666 0.381226C143.177 0.381226 142.846 0.425051 142.81 0.430042L129.154 2.32719L128.876 4.98357L143.161 2.99898C143.162 2.99877 143.36 2.97361 143.666 2.97361C146.113 2.97361 147.354 4.20855 147.354 6.64369V50.5739C147.348 51.0301 147.184 55.0337 142.905 55.1324L6.9771 58.2607L6.96842 59.5577V58.2607C6.88398 58.2607 4.88735 58.2466 3.65057 57.0075C2.94638 56.3018 2.59018 55.2808 2.59223 53.9731L2.6312 27.1175C2.63667 26.6466 2.81169 22.4985 7.18514 21.8898L78.6078 11.9675L78.8857 9.31108L6.82799 19.3216C1.46689 20.0679 0.0420931 24.7405 0.037991 27.1072L-0.000290916 53.969C-0.00370933 55.9901 0.607499 57.6283 1.81557 58.839C3.72988 60.7566 6.4441 60.8537 6.96842 60.8537L142.965 57.7248C148.487 57.5971 149.946 52.9956 149.946 50.5803Z" fill="#F9F9F9"/>
</g>
</g>
</g>
<g id="Group_21">
<g id="Group_22">
<path id="Vector_9" d="M44.658 25.699C42.5323 25.699 40.8035 23.9699 40.8035 21.8442C40.8035 19.7194 42.5323 17.9902 44.658 17.9902C46.7839 17.9902 48.5127 19.7194 48.5127 21.8442C48.5127 23.9699 46.7839 25.699 44.658 25.699Z" fill="#F9F9F9"/>
</g>
</g>
</g>
</g>
</g>
<defs>
<clipPath id="clip0_1_42">
<rect width="150" height="60.5059" fill="white" transform="translate(0 0.381592)"/>
</clipPath>
</defs>
</svg>
