<svg width="74" height="72" viewBox="0 0 74 72" fill="none" xmlns="http://www.w3.org/2000/svg">
<path d="M22.2 57.7438C18.13 57.7438 14.837 60.9388 14.837 64.8438C14.837 68.7488 18.13 71.9438 22.2 71.9438C26.27 71.9438 29.6 68.7488 29.6 64.8438C29.6 60.9388 26.27 57.7438 22.2 57.7438ZM0 0.943848V8.04385H7.4L20.72 34.9883L15.725 43.6858C15.133 44.6798 14.8 45.8513 14.8 47.0938C14.8 50.9988 18.13 54.1938 22.2 54.1938H66.6V47.0938H23.754C23.236 47.0938 22.829 46.7033 22.829 46.2063L22.94 45.7803L26.27 39.9938H53.835C56.61 39.9938 59.052 38.5383 60.31 36.3373L73.556 13.2978C73.852 12.8008 74 12.1973 74 11.5938C74 9.64135 72.335 8.04385 70.3 8.04385H15.577L12.099 0.943848H0ZM59.2 57.7438C55.13 57.7438 51.837 60.9388 51.837 64.8438C51.837 68.7488 55.13 71.9438 59.2 71.9438C63.27 71.9438 66.6 68.7488 66.6 64.8438C66.6 60.9388 63.27 57.7438 59.2 57.7438Z" fill="#4979D1"/>
</svg>
