<svg width="200" height="43" viewBox="0 0 200 43" fill="none" xmlns="http://www.w3.org/2000/svg">
<g id="Clipboard 4" clip-path="url(#clip0_1_102)">
<g id="Group">
<path id="Vector" d="M55.3808 6.86498C45.3896 6.78149 36.6682 12.466 35.4071 20.0795C33.742 30.1388 40.3022 34.2931 50.8507 34.1689C60.842 34.0514 69.3857 29.1543 71.043 20.5164C72.4964 12.9378 66.7614 6.95916 55.3808 6.86498ZM62.4925 20.8456C61.6226 25.3281 57.2488 27.464 52.0507 27.8038C46.4245 28.1708 42.5974 25.5475 43.7372 20.0805C44.5342 16.2601 48.0643 13.1572 54.5071 13.1223C61.7323 13.0825 63.2362 17.0145 62.4925 20.8456Z" fill="#F9F9F9"/>
<path id="Vector_2" d="M78.7333 30.0844L85.6216 2.91449H76.7653C76.8207 3.67954 76.9294 4.82808 76.6566 5.92129L69.7682 33.0912H78.843C78.6245 32.4349 78.4605 31.0679 78.7333 30.0844Z" fill="#F9F9F9"/>
<path id="Vector_3" d="M158.072 24.9766L161.085 13.197L168.773 13.1922L170.085 7.88925H162.43L163.688 2.91449H154.831C154.886 3.67954 154.994 4.82808 154.722 5.92129L149.482 26.6019C149.091 28.1718 148.216 33.1465 156.253 33.4747C158.713 33.5844 162.211 33.2562 163.796 32.8184L165.273 26.9135C162.867 27.5155 161.173 27.5155 159.424 27.5155C157.674 27.5155 157.867 26.1019 158.072 24.9766Z" fill="#F9F9F9"/>
<path id="Vector_4" d="M175.77 21.3921H197.31C198.185 17.8931 201.246 6.95911 186.595 6.63096C171.291 6.28824 168.008 17.0183 167.352 18.9863C166.695 20.9543 164.727 32.8717 182.222 33.528C185.721 33.6378 190.422 32.8717 192.936 32.4348L194.467 26.7494C190.53 27.7339 174.895 30.03 175.77 21.3921ZM185.72 11.7698C188.781 11.8795 190.968 13.1912 190.422 16.1426H177.629C178.94 13.1921 182.658 11.6611 185.72 11.7698Z" fill="#F9F9F9"/>
<path id="Vector_5" d="M113.448 7.06884C111.48 7.06884 91.3614 4.44457 84.6925 16.2533C82.943 19.7523 79.6624 32.8718 95.9546 33.4193C98.6876 33.5281 102.406 33.4193 103.608 33.0912C103.061 34.4038 103.608 35.9339 95.2983 35.8242C92.7838 35.8242 86.2226 36.2611 83.1624 34.6213L81.5226 40.7446C84.1469 41.3999 90.0507 41.6193 93.9867 41.6193C97.9236 41.6193 109.294 43.4785 111.918 32.763L118.478 6.85039C117.493 7.06884 115.416 7.06884 113.448 7.06884ZM105.028 27.1873C103.17 27.9523 91.3032 29.5805 91.7993 21.2824C92.2362 13.9572 102.842 11.3329 108.856 12.2077L105.028 27.1873Z" fill="#F9F9F9"/>
<path id="Vector_6" d="M22.3711 27.5154C17.9974 27.4057 11.4372 25.6562 11.5469 19.096C11.6566 12.5358 19.6381 4.55428 38.0061 8.81835L39.7556 1.93C32.8663 0.727091 13.5139 -2.55252 3.8925 12.2077C0.721629 17.1271 1.15949 25.2184 5.42357 29.264C9.18571 32.8329 16.9042 35.9329 31.8838 32.9815L33.742 25.6562C30.7896 26.8591 26.744 27.6242 22.3711 27.5154Z" fill="#F9F9F9"/>
<path id="Vector_7" d="M137.502 6.85041C133.894 6.74168 126.897 7.17857 123.835 7.39702L122.414 12.9727C123.726 12.7533 129.192 12.2077 134.113 12.3164C139.033 12.4261 141.329 12.863 140.783 15.4873H134.878C128.536 15.4873 117.712 16.1426 115.962 23.797C114.213 31.4504 123.179 33.0902 126.568 33.0902H144.5L148.436 17.4553C151.169 6.74071 141.11 6.95915 137.502 6.85041ZM137.611 27.8436H129.848C126.677 27.8436 124.709 27.0776 124.709 24.7815C124.709 22.4854 126.459 20.7359 134.002 20.7359H139.36L137.611 27.8436Z" fill="#F9F9F9"/>
</g>
</g>
<defs>
<clipPath id="clip0_1_102">
<rect width="200" height="41.7476" fill="white" transform="translate(0 0.760803)"/>
</clipPath>
</defs>
</svg>
