<svg width="150" height="65" viewBox="0 0 150 65" fill="none" xmlns="http://www.w3.org/2000/svg">
<g id="Clipboard 3" clip-path="url(#clip0_1_82)">
<g id="Group">
<g id="Group_2">
<path id="Vector" fill-rule="evenodd" clip-rule="evenodd" d="M17.987 34.332C17.5137 34.1605 17.1037 34.3364 16.6928 34.5053C16.5133 34.5794 16.1936 34.5911 16.2409 34.817C16.2917 35.0644 16.6061 34.9359 16.7758 34.9055C17.2242 34.8232 17.7128 34.7813 17.987 34.332ZM6.99902 55.6098C7.31685 55.1953 7.3356 54.7665 7.41243 54.3682C7.61525 53.3187 7.70535 52.255 7.73393 51.1867C7.73667 51.0991 7.75291 51.0026 7.64658 50.9802C7.56518 50.9633 7.51167 51.0437 7.49018 51.1053C7.42501 51.2982 7.35984 51.494 7.32234 51.6931C7.25878 52.0361 7.20618 52.3807 7.16594 52.7255C7.05618 53.6626 6.91945 54.5978 6.99902 55.6098ZM9.93317 34.8625C9.95283 34.6437 9.9725 34.4248 9.99193 34.2051L9.97958 34.2248L9.98942 34.2309C9.98484 34.0594 10.0608 33.8845 9.97067 33.7165L9.9725 33.7121C9.99376 33.6657 10.0153 33.6202 10.0377 33.5735C10.0438 33.5719 10.0491 33.571 10.0555 33.5701C10.0491 33.5729 10.0429 33.5754 10.0367 33.5781C10.0377 33.5075 10.042 33.4343 9.97501 33.3842C10.1394 33.086 10.034 32.784 9.99376 32.4769C9.99559 32.7117 9.88035 32.8992 9.809 33.1057C9.72234 33.3584 9.61876 33.6193 9.64094 33.9005C9.51952 34.0988 9.51952 34.3302 9.46236 34.5463C9.33111 35.0395 9.54536 35.6441 9.00504 36.0094C8.99887 35.9941 8.99155 35.979 8.98446 35.9639C8.97737 35.9674 8.96937 35.9729 8.96137 35.9763C8.9712 35.987 8.98103 35.9987 8.99155 36.0094C8.83446 35.987 8.67806 35.9665 8.60672 36.1604C8.46564 35.9468 8.3433 36.0952 8.22714 36.1862C8.17341 36.2283 8.17981 36.33 8.23949 36.33C8.37257 36.3328 8.53606 36.4677 8.63964 36.2701C8.69521 36.3399 8.75237 36.397 8.83355 36.3005C8.83904 36.3175 8.84429 36.3346 8.84864 36.3524C8.84612 36.3319 8.84429 36.3131 8.84064 36.2944C9.3151 36.3899 9.70451 36.146 9.78751 35.6985C9.83942 35.4172 9.88492 35.1351 9.93317 34.8527C9.93934 34.8625 9.94551 34.8723 9.95192 34.8822C9.94551 34.876 9.93934 34.8696 9.93317 34.8625ZM14.877 18.4867H14.8779C14.6035 18.5875 14.2793 18.5027 14.0346 18.7107C13.588 18.7752 13.1424 18.8447 12.7109 18.9815C12.5268 19.0396 12.1893 19.0199 12.2207 19.2191C12.2607 19.4729 12.576 19.378 12.7779 19.3423C13.6345 19.1923 14.4901 19.0334 15.3441 18.8653C15.6361 18.8082 15.921 18.7181 16.2087 18.6431C16.2489 18.6769 16.281 18.6806 16.2972 18.6207C16.3864 18.5939 16.4758 18.5662 16.5652 18.5393C16.6134 18.5752 16.6534 18.5697 16.6829 18.5152C16.7508 18.4919 16.8188 18.4697 16.8858 18.4464L16.8876 18.459L16.8848 18.4501C16.9626 18.4375 17.0394 18.4268 17.1162 18.416C17.1242 18.4206 17.1332 18.4249 17.1421 18.4304C17.1448 18.4206 17.1467 18.4107 17.1492 18.4009C17.2395 18.376 17.3305 18.3499 17.4208 18.3259C17.7307 18.3803 17.9888 18.183 18.2801 18.1489C18.4756 18.1268 18.388 17.9793 18.3908 17.8729C18.4212 17.8659 18.4523 17.8588 18.4827 17.8517C18.4836 17.8597 18.4845 17.8686 18.4864 17.8775C18.4569 17.8748 18.4265 17.8729 18.397 17.8713C17.7709 17.9971 17.1224 17.982 16.5071 18.1713C16.2874 18.1357 16.1104 18.333 15.889 18.2884C15.5298 18.2438 15.2003 18.3508 14.877 18.4867ZM33.761 11.9671C34.0297 12.4951 33.9531 13.0757 33.9887 13.6329C34.053 14.6235 33.9592 15.6133 33.7057 16.5707C33.2957 18.1169 32.5775 19.4818 31.377 20.5965C30.4409 21.4645 29.3707 22.037 28.1641 22.3809C26.2448 22.9277 24.3064 23.3886 22.3351 23.7307C20.9524 23.9708 19.5645 24.1951 18.1925 24.4988C17.8772 24.5694 17.778 24.7336 17.7451 25.0034C17.5404 26.6898 17.3403 28.3761 17.1323 30.0616C17.0438 30.7709 16.9411 31.4781 16.8455 32.1865C16.8037 32.4339 16.7508 32.6804 16.7232 32.9296C16.6919 33.1976 16.8028 33.3129 17.0858 33.2324C17.4073 33.1405 17.7361 33.0716 18.0595 32.9841C18.9928 32.7323 19.9521 32.5544 20.7954 32.0409L20.7917 32.0454C20.8713 32.0534 20.9506 32.0605 21.0302 32.0678L21.0194 32.074L21.0265 32.0678C21.0391 32.0909 21.0508 32.1133 21.0624 32.1355C21.1605 33.8845 21.0794 35.6253 20.296 37.2197C19.7154 38.4014 18.833 39.3284 17.4494 39.6357C17.0037 39.735 16.5624 39.8546 16.106 39.8939C15.8417 39.9163 15.7406 40.0485 15.7084 40.3066C15.4164 42.6325 15.1137 44.9585 14.8134 47.2835C14.5205 49.5529 14.1471 51.8091 13.7989 54.0698C13.6123 55.2792 13.4737 56.4993 13.2352 57.6989C13.0164 58.8028 12.9082 59.9409 12.4063 60.9769C11.7213 62.39 10.7621 63.4921 9.21952 64.0352C8.03141 64.4541 6.85771 64.4873 5.68675 64.0791C4.72478 63.7432 3.95855 63.1251 3.41182 62.248C3.20992 61.9229 2.97051 61.6219 2.82051 61.2664C2.826 61.2575 2.83743 61.2421 2.83492 61.2396C2.82326 61.2271 2.80816 61.2172 2.79467 61.2065C2.78919 61.1779 2.78484 61.1502 2.78027 61.1235C2.78118 61.0519 2.7885 60.9787 2.78118 60.9081C2.70184 60.0829 2.70184 60.0828 3.42074 59.7479C3.49757 59.7113 3.5664 59.6559 3.64506 59.631C4.69894 59.2915 5.28225 58.5259 5.62798 57.5132C5.90832 56.6941 5.93781 55.8348 6.06815 54.9943C6.28698 53.5716 6.42463 52.137 6.59887 50.7078C6.73629 49.5735 6.88812 48.4409 7.01502 47.3066C7.17852 45.8354 7.30359 44.3607 7.48034 42.8923C7.60817 41.8366 7.5821 41.7822 6.64254 41.9644C6.62379 41.9678 6.60961 41.9939 6.59246 42.009C6.55862 42.0225 6.52387 42.0357 6.48888 42.0492C6.36563 42.0277 6.28881 42.0886 6.2353 42.1912C6.21381 42.2001 6.1914 42.21 6.16922 42.218L6.13881 42.21L6.12623 42.2395C5.87448 42.3234 5.69567 42.4949 5.56533 42.7199C5.44483 42.9307 5.27768 42.971 5.07943 42.8425C4.41929 42.4146 3.85405 41.8867 3.42623 41.2222C3.48957 41.0335 3.276 40.9693 3.2465 40.8282C3.06358 39.9566 3.01784 39.0767 3.32265 38.23C3.74224 37.0606 4.64978 36.3524 5.72882 35.8272C6.47722 35.4618 7.27044 35.2064 8.06731 34.9921C8.53172 34.8662 8.63439 34.5945 8.68698 34.2069C8.88088 32.7904 9.09079 31.3745 9.26937 29.9543C9.39993 28.9165 9.48911 27.8733 9.60161 26.8336C9.62219 26.647 9.5856 26.5121 9.36769 26.5318C9.02562 26.5629 8.68698 26.6184 8.3824 26.7934C7.4616 27.0506 6.63179 27.4643 5.99772 28.2037C5.76175 28.4779 5.61884 28.8101 5.46449 29.1337C5.37326 29.3246 5.25801 29.3989 5.04102 29.3713C3.86914 29.222 2.74277 28.9352 1.77737 28.2225C1.25306 27.8367 0.808089 27.3598 0.500085 26.7737C0.426686 26.6354 0.359003 26.4934 0.225924 26.3994C0.0910154 25.8001 -0.0143962 25.1875 0.00160988 24.5809C0.0445977 22.932 0.821579 21.6915 2.21228 20.808C3.41457 20.0436 4.76068 19.6594 6.10474 19.2682C6.89795 19.0377 7.70717 18.8582 8.5164 18.684C10.2967 18.301 12.0821 17.9399 13.8631 17.5613C15.4137 17.2309 16.9598 16.8861 18.5095 16.552C19.318 16.3777 20.129 16.2127 20.9383 16.0437C21.8904 15.8445 22.8496 15.6785 23.791 15.44C24.8378 15.1757 25.9018 14.995 26.9495 14.7396C27.9194 14.5039 28.9153 14.3566 29.8649 14.061C31.1456 13.6615 32.3042 12.9979 33.3341 12.1263C33.4598 12.0191 33.5984 11.9653 33.761 11.9671Z" fill="#F9F9F9"/>
</g>
<g id="Group_3">
<g id="Clip path group">
<mask id="mask0_1_82" style="mask-type:luminance" maskUnits="userSpaceOnUse" x="128" y="2" width="22" height="34">
<g id="_clip1">
<path id="Vector_2" d="M149.932 2.85205H128.413V35.0929H149.932V2.85205Z" fill="white"/>
</g>
</mask>
<g mask="url(#mask0_1_82)">
<g id="Group_4">
<path id="Vector_3" fill-rule="evenodd" clip-rule="evenodd" d="M136.709 24.7864C136.951 25.7742 137.45 25.8654 138.139 25.358C138.587 25.0274 138.965 24.6201 139.237 24.1299C139.602 23.4707 139.967 22.8142 140.282 22.1255C140.524 21.5984 140.732 21.0563 140.89 20.515C141.157 19.6004 141.472 18.6993 141.633 17.7453C141.736 17.138 141.746 16.5092 141.929 15.9124C142.088 15.3944 141.997 14.8566 141.99 14.3314C141.981 13.6964 141.96 13.0409 141.557 12.4889C141.409 12.287 141.243 12.1271 140.963 12.236C140.709 12.2602 140.519 12.4111 140.329 12.5575C139.875 12.9094 139.531 13.3713 139.248 13.8492C138.394 15.2863 137.759 16.8226 137.31 18.4365C136.879 19.9818 136.529 21.5412 136.53 23.1535C136.531 23.6984 136.464 24.263 136.709 24.7864ZM137.34 7.24392C137.447 7.27776 137.522 7.21808 137.596 7.15634L137.617 7.16617L137.614 7.14216C137.877 6.83576 138.254 6.67684 138.549 6.41503C139.139 5.89072 139.851 5.55939 140.499 5.12608C140.959 4.81808 141.581 4.78309 141.952 4.27501C141.572 4.23477 141.214 4.26701 140.894 4.38203C139.989 4.70901 139.134 5.14483 138.375 5.74597C137.955 6.0773 137.525 6.40085 137.231 6.86343C136.865 6.99285 136.731 7.33675 136.543 7.62349C136.49 7.70398 136.49 7.85489 136.591 7.91914C136.702 7.9898 136.744 7.85306 136.812 7.79773C136.866 7.75314 136.962 7.73256 136.984 7.67791C137.06 7.49407 137.386 7.51899 137.34 7.24392ZM141.109 22.7131C141.041 22.7856 140.958 22.8526 141.004 22.9704C140.892 23.057 140.861 23.1741 140.883 23.309C140.639 23.4153 140.654 23.6671 140.589 23.8653C140.569 23.9289 140.644 24.0638 140.711 24.1075C140.811 24.1699 140.905 24.0611 140.942 23.9888C141.084 23.7092 141.336 23.4796 141.337 23.1348C141.366 23.0902 141.395 23.0456 141.423 23.0008C141.592 22.856 141.652 22.6605 141.685 22.4515C141.71 22.3978 141.735 22.3434 141.76 22.289C141.846 22.2524 141.835 22.1746 141.838 22.1024C141.87 22.0486 141.902 21.9942 141.935 21.9398C141.976 21.8547 142.015 21.769 141.977 21.6727C141.997 21.6227 142.016 21.5735 142.037 21.5234C142.048 21.5209 142.066 21.5182 142.066 21.5154C142.066 21.4948 142.063 21.4743 142.061 21.4546C142.081 21.3805 142.1 21.3073 142.12 21.2332C142.129 21.2351 142.138 21.2376 142.146 21.2394C142.138 21.2367 142.131 21.2342 142.124 21.2305C142.223 21.1313 142.194 20.9982 142.212 20.8768C142.318 20.6383 142.39 20.3936 142.347 20.1284C142.335 20.0605 142.335 19.9756 142.235 19.9729C142.163 19.972 142.144 20.0319 142.117 20.0881C141.989 20.3579 141.842 20.6186 141.791 20.9188C141.726 21 141.733 21.0993 141.724 21.1948L141.704 21.1884L141.717 21.2056C141.415 21.6682 141.202 22.1666 141.109 22.7131ZM146.063 3.61305C146.54 3.91579 146.966 4.29102 147.361 4.685C147.862 5.18325 148.262 5.77273 148.603 6.39902C149.248 7.58164 149.555 8.84979 149.749 10.1771C149.948 11.5393 149.97 12.8934 149.885 14.2555C149.794 15.748 149.541 17.2121 149.167 18.6634C148.873 19.8023 148.54 20.9268 148.179 22.0425C147.959 22.7257 147.635 23.376 147.359 24.0414C147.124 24.6041 146.913 25.1776 146.626 25.7188C146.366 26.2118 146.135 26.721 145.863 27.2079C145.124 28.5297 144.252 29.7631 143.282 30.9252C142.594 31.7488 141.796 32.4643 140.937 33.1073C139.355 34.2899 137.593 34.9688 135.604 34.8652C133.818 34.7714 132.14 34.3203 130.81 33.0117C130.217 32.4268 129.8 31.7104 129.358 31.0127C129.217 30.592 129.054 30.1768 128.942 29.7489C128.713 28.8764 128.636 27.9805 128.554 27.0837C128.463 26.0842 128.453 25.0811 128.554 24.0949C128.706 22.6034 128.896 21.1125 129.214 19.6416C129.397 18.7973 129.603 17.9579 129.864 17.1352C130.133 16.2805 130.466 15.4461 130.76 14.5985C131.012 13.8732 131.361 13.1854 131.714 12.5147C131.999 11.9735 132.274 11.4142 132.637 10.9043C133.045 10.3308 133.392 9.71366 133.787 9.12852C134.395 8.23081 135.084 7.40032 135.836 6.62677C136.597 5.84338 137.405 5.10642 138.321 4.49567C139.49 3.71754 140.702 3.04758 142.132 2.90558C142.996 2.81983 143.848 2.84681 144.699 3.10657C145.167 3.24948 145.616 3.42372 146.063 3.61305Z" fill="#F9F9F9"/>
</g>
</g>
</g>
</g>
<path id="Vector_4" fill-rule="evenodd" clip-rule="evenodd" d="M99.9254 32.0873C99.8566 32.1463 99.8547 32.2169 99.8879 32.2938C99.7333 32.5037 99.6146 32.7216 99.7164 32.993C100.033 32.8466 100.042 32.8313 99.9773 32.6116C100.158 32.6671 100.176 32.4947 100.22 32.409C100.361 32.1355 100.468 31.8454 100.601 31.5666C100.996 30.7359 101.236 29.8615 101.365 28.9531C101.379 28.8495 101.395 28.7566 101.29 28.705C101.142 28.6325 101.11 28.7585 101.063 28.854C101.016 28.9496 100.952 29.0397 100.921 29.1408C100.728 29.7463 100.542 30.3536 100.354 30.9611C100.21 31.2755 100.034 31.5774 99.9942 31.9302C99.97 31.9846 99.946 32.0383 99.9217 32.0928L99.9137 32.0811L99.9254 32.0873ZM91.6134 21.7236L91.607 21.7119L91.6141 21.7201C90.9389 22.7937 90.4628 23.953 90.1288 25.174C90.0851 25.3357 90.0135 25.4857 89.9557 25.6402C89.81 26.0278 89.5866 26.4101 89.7172 26.856C89.5134 27.0595 89.491 27.5322 89.6984 27.7732C89.7457 27.5777 89.8795 27.4311 89.8592 27.2301C90.1047 26.5613 90.3165 25.8778 90.6032 25.2268C91.0489 24.2139 91.414 23.168 91.9223 22.1809C92.0849 21.8646 92.3984 21.5976 92.344 21.186L92.3467 21.1771C92.4725 21.1252 92.5637 21.0474 92.5592 20.8965C92.6513 20.8741 92.6145 20.7778 92.6593 20.725C92.7414 20.6267 92.9086 20.532 92.7165 20.3882C92.537 20.2551 92.403 20.3445 92.3065 20.5018C92.0778 20.8707 91.7723 21.1967 91.6706 21.636C91.6516 21.6655 91.6322 21.695 91.6134 21.7236ZM99.9128 21.5155L99.9156 21.5173C99.8762 21.4057 99.7797 21.4432 99.7004 21.4352C99.343 21.3851 99.0805 21.553 98.8464 21.797C97.9095 22.7722 97.3717 23.9797 96.8733 25.2063C96.3597 26.47 96.0419 27.7903 95.8175 29.1362C95.5996 30.4466 95.4773 31.7596 95.639 33.0861C95.6648 33.2976 95.6657 33.5219 95.8123 33.7023C96.0846 34.6713 96.7786 34.7187 97.42 34.0926C97.8702 33.6531 98.18 33.1245 98.5061 32.5894C99.3787 31.1594 99.8255 29.5828 100.199 27.9797C100.46 26.8551 100.636 25.7143 100.659 24.5541C100.675 23.7209 100.673 22.8945 100.38 22.1015C100.303 21.8941 100.259 21.6476 99.988 21.5806L99.9915 21.5843C99.9887 21.5333 99.962 21.5127 99.9128 21.5155ZM105.142 13.5678C105.679 14.1492 106.313 14.6326 106.729 15.338C107.251 16.2241 107.672 17.1387 107.964 18.1258C108.402 19.605 108.578 21.1172 108.557 22.648C108.534 24.4567 108.331 26.2494 107.922 28.0172C107.743 28.7889 107.549 29.556 107.323 30.3145C107.03 31.0656 106.821 31.8481 106.495 32.5876C106.424 32.7465 106.32 32.9047 106.335 33.0941C105.976 33.9835 105.573 34.8518 105.133 35.7058C104.42 37.0848 103.592 38.38 102.611 39.5884C101.651 40.772 100.542 41.7696 99.2207 42.5136C97.7961 43.3158 96.2534 43.6007 94.6226 43.4184C93.6615 43.3105 92.7128 43.1283 91.8517 42.6941C91.205 42.368 90.6094 41.9509 90.1002 41.3937C89.6339 40.8835 89.2777 40.3039 88.848 39.7734C88.8631 39.7377 88.8604 39.7107 88.814 39.7064L88.8124 39.7046C88.822 39.6421 88.7854 39.6044 88.7417 39.5697L88.7399 39.5589C88.7586 39.4956 88.7577 39.4384 88.6864 39.4062L88.6889 39.4098C88.5693 39.1096 88.4202 38.8185 88.3336 38.5087C87.9565 37.1589 87.7727 35.77 87.7324 34.3775C87.6922 33.0019 87.7834 31.6204 87.9645 30.25C88.1691 28.7013 88.4522 27.1677 88.9267 25.6752C89.1695 24.9106 89.4357 24.1558 89.7098 23.4019C90.035 22.5097 90.4342 21.6504 90.8719 20.8215C91.407 19.8104 91.9983 18.8226 92.6959 17.9024C94.2403 15.8633 95.9294 14.0002 98.331 12.938C99.2296 12.5397 100.161 12.2683 101.155 12.2889C102.552 12.3181 103.86 12.6451 105.013 13.4731C105.055 13.5017 105.096 13.5321 105.138 13.5616C105.137 13.5616 105.128 13.5767 105.128 13.5767L105.142 13.5678Z" fill="#F9F9F9"/>
<path id="Vector_5" fill-rule="evenodd" clip-rule="evenodd" d="M73.7111 19.4621C73.4904 19.445 73.2759 19.4139 73.0635 19.4164C72.6972 19.421 72.1363 19.8408 72.0361 20.1614C72.0066 20.2578 71.9906 20.3482 72.0675 20.4312C72.1105 20.4776 72.1425 20.4543 72.188 20.4257C72.6892 20.1131 73.2732 19.9354 73.7111 19.4621ZM68.4643 34.1489C68.3813 34.4107 68.4421 34.6919 68.3447 34.9546C68.325 35.0072 68.2617 35.1618 68.4233 35.1778C68.5196 35.1867 68.5653 35.1145 68.5884 35.0232C68.6483 34.7857 68.7144 34.5499 68.7778 34.3133C68.9769 33.7979 69.0439 33.2495 69.1333 32.7117C69.2771 31.8392 69.421 30.9636 69.445 30.076C69.4477 29.9918 69.4861 29.8713 69.3128 29.8652C69.0887 30.5573 68.8967 31.2584 68.8063 31.9846C68.7126 32.0338 68.7242 32.1115 68.7492 32.1927C68.735 32.2428 68.7206 32.2937 68.7073 32.3438C68.6465 32.5 68.6188 32.6598 68.6394 32.8279C68.5983 32.9066 68.5955 32.9868 68.617 33.0707C68.4965 33.3611 68.4732 33.6666 68.4876 33.9755C68.4796 34.0336 68.4723 34.0917 68.4643 34.1489ZM58.0603 40.4612C58.0416 40.5682 58.0397 40.6745 58.0836 40.7772C58.0765 40.7809 58.063 40.787 58.064 40.7889C58.0674 40.8024 58.0738 40.8156 58.08 40.8291C58.0701 40.9059 58.0603 40.9828 58.0505 41.0596C57.9531 41.2892 58.0996 41.5178 58.055 41.7518C58.3855 41.4275 58.3827 41.0077 58.4008 40.5924C58.4463 40.1146 58.5489 39.6456 58.6178 39.1713C58.7294 38.3889 58.7838 37.6011 58.8999 36.8205C58.9242 36.6641 59.0339 36.4354 58.816 36.3863C58.6079 36.3399 58.6294 36.6168 58.5391 36.7437C58.5256 36.7624 58.5213 36.7883 58.5176 36.8116C58.3265 38.0084 58.096 39.2008 58.064 40.4173C58.0523 40.4244 58.0406 40.4308 58.0292 40.4379C58.0397 40.4459 58.0505 40.453 58.0603 40.4612ZM58.7088 25.8993C58.6516 25.8431 58.5944 25.7877 58.5373 25.7315C58.5837 24.8365 58.9125 24.0271 59.2795 23.2261C59.5422 22.6551 59.9762 22.2282 60.397 21.788C60.6016 21.5735 60.8552 21.4002 61.0955 21.2431C61.5028 20.9761 61.8012 21.3225 62.095 21.561C62.2994 21.7263 62.3691 21.9156 62.1771 22.1399C61.6386 22.2577 61.3169 22.6249 61.0793 23.0902C60.9837 23.2759 61.1097 23.3635 61.2249 23.4796C61.3912 23.6459 61.4072 23.4538 61.4877 23.3976C61.9358 23.0884 62.2985 22.6695 62.7782 22.4015C62.981 22.3926 63.1569 22.4829 63.3855 22.6053C63.2499 22.3284 63.3339 22.0354 63.1034 21.871C62.8194 21.6682 62.6854 21.3556 62.4942 21.0858C62.3593 20.8956 62.4325 20.7625 62.6701 20.6955C63.4319 20.4785 64.1824 20.5492 64.9308 20.7554C65.247 21.1162 65.7178 21.3126 65.9598 21.7549C66.4797 22.6999 66.509 23.711 66.3636 24.7382C66.2099 25.8207 66.0419 26.9024 65.85 27.9787C65.6008 29.3747 65.3079 30.7636 65.0595 32.1607C64.8146 33.5424 64.4762 34.9089 64.3404 36.3069C64.2912 36.8205 64.2261 37.3572 64.444 37.8627C64.5307 38.2075 64.6361 38.5524 65.0166 38.6703C65.4194 38.7952 65.756 38.6774 66.0572 38.363C66.501 37.8986 66.8056 37.3528 66.9601 36.7489C67.1835 35.8791 67.3379 34.9903 67.5014 34.1052C67.8078 32.4508 68.0214 30.7823 68.3358 29.1282C68.7851 26.7657 69.0334 24.3684 69.6352 22.0309C69.9862 20.6687 70.7143 19.6318 71.8861 18.869C72.3345 18.577 72.8232 18.4348 73.3303 18.3554C73.9422 18.2589 74.5523 18.3197 75.1319 18.5671C76.0253 19.1379 76.6745 19.8899 76.9237 20.9475C77.0998 21.6941 77.0042 22.4319 76.8649 23.1671C76.6111 24.5034 76.379 25.8449 76.0877 27.1729C75.8376 28.3137 75.6126 29.4577 75.3821 30.6019C75.04 32.3036 74.706 34.0059 74.3666 35.7076C74.1112 36.9893 73.8181 38.2656 73.6029 39.5546C73.3786 40.8934 73.1179 42.2358 73.1911 43.6059C73.2341 44.3948 73.4922 45.1128 74.0344 45.705C74.2459 45.9355 74.2969 46.083 74.0833 46.3937C73.4145 47.3717 72.5694 48.0863 71.4503 48.4846C70.6706 48.7624 69.9096 48.6616 69.1477 48.4293C68.4812 48.2267 67.9642 47.8103 67.521 47.2816C67.1943 46.8904 67.1559 46.8938 66.8575 47.2841C66.2314 48.1016 65.5239 48.8518 64.6772 49.4244C63.182 50.4346 61.5725 50.7026 59.8601 49.9352C58.7723 49.4475 58.1497 48.5427 57.6156 47.5441C57.595 47.5057 57.5538 47.4771 57.5236 47.4442C57.5369 47.4067 57.536 47.3781 57.4843 47.3797C57.4763 47.3566 57.469 47.3324 57.461 47.3102C57.4404 47.1931 57.4324 47.0735 57.3995 46.9599C57.1761 46.2088 57.0501 45.4352 56.9929 44.6591C56.885 43.1738 56.9911 41.6866 57.1226 40.2065C57.2824 38.4122 57.5049 36.6248 57.8415 34.8536C58.1033 33.4782 58.3765 32.1053 58.6587 30.7343C58.8114 29.9937 58.9964 29.2594 59.1627 28.5218C59.2518 28.1235 59.3342 27.7258 59.502 27.3481C59.7288 26.8373 59.2573 25.9976 58.7088 25.8993Z" fill="#F9F9F9"/>
<path id="Vector_6" fill-rule="evenodd" clip-rule="evenodd" d="M114.787 32.5921C114.948 32.5964 114.999 32.4947 115.017 32.3678C115.038 32.2107 114.938 32.1615 114.803 32.148C114.689 32.1364 114.567 32.149 114.556 32.282C114.544 32.4357 114.643 32.542 114.787 32.5921ZM109.1 32.8939C109.165 32.9038 109.226 32.8894 109.257 32.8313C109.502 32.357 109.983 32.0586 110.204 31.5693C110.253 31.463 110.484 31.3825 110.273 31.2236C110.102 31.0942 109.938 31.1092 109.784 31.254C109.671 31.3621 109.549 31.4621 109.452 31.5835C109.16 31.9541 108.79 32.282 108.74 32.7974C108.639 32.9538 108.726 33.1057 108.724 33.26C108.966 33.2314 109.076 33.1038 109.1 32.8939ZM115.862 11.9689L115.873 11.9842L115.867 11.9671C116.08 11.8475 116.242 11.6698 116.403 11.4938L116.411 11.5045L116.401 11.4956C116.431 11.4769 116.459 11.4572 116.488 11.4394C116.727 11.3625 116.875 11.148 117.087 11.0303C117.159 10.9919 117.169 10.9274 117.128 10.849C117.086 10.7712 117.038 10.7792 116.96 10.7746C116.645 10.7534 116.404 10.907 116.158 11.0632C116.136 11.082 116.113 11.1007 116.089 11.1195L116.068 11.1096L116.071 11.132C116.029 11.1535 115.987 11.1757 115.946 11.1972L115.926 11.1874L115.934 11.208C115.916 11.2285 115.898 11.2491 115.88 11.2697C115.813 11.2491 115.786 11.2786 115.786 11.3429C115.763 11.3598 115.739 11.3767 115.717 11.3936L115.698 11.3822L115.702 11.4028C115.273 11.5875 114.971 11.9385 114.662 12.2593C114.395 12.5353 114.032 12.7468 113.918 13.1552C113.909 13.1543 113.901 13.1543 113.892 13.1534C113.899 13.1561 113.908 13.1577 113.916 13.1605C113.804 13.2195 113.75 13.3123 113.748 13.4374C113.386 13.6894 113.323 14.0993 113.133 14.4995C113.629 14.3207 113.925 14.0474 114.154 13.591C114.175 13.5668 114.198 13.5437 114.22 13.5195L114.23 13.5366L114.226 13.5179C114.509 13.4794 114.587 13.2167 114.731 13.0372C115.026 12.6693 115.453 12.4416 115.731 12.0608C115.747 12.0574 115.765 12.0528 115.781 12.0494C115.776 12.0421 115.772 12.0341 115.766 12.027C115.798 12.0073 115.831 11.9877 115.862 11.9689ZM117.8 28.0626C117.511 27.5051 117.024 27.1292 116.571 26.7236C115.809 26.0403 114.973 25.4465 114.185 24.7935C113.54 24.2584 112.913 23.7217 112.368 23.0893C111.901 22.5471 111.485 21.9647 111.149 21.3298C111.046 21.0126 110.9 20.7089 110.847 20.3758C110.705 19.479 110.698 18.5868 110.822 17.6836C110.973 16.5778 111.271 15.5186 111.772 14.5281C112.347 13.39 113.081 12.3602 113.995 11.4535C114.509 10.9445 115.045 10.4532 115.631 10.0496C116.417 9.50719 117.245 9.0206 118.132 8.63371C118.995 8.25689 119.882 7.98272 120.79 7.76824C121.562 7.586 122.345 7.46458 123.148 7.49682C124.495 7.54942 125.819 7.66557 127.005 8.40323C127.131 8.48097 127.272 8.57381 127.437 8.57312L127.444 8.60239L127.472 8.61062C127.448 8.64355 127.452 8.65064 127.487 8.62571C127.521 8.65612 127.555 8.68562 127.589 8.71512C127.588 8.7142 127.581 8.73638 127.581 8.73638L127.606 8.73295C128.407 9.42076 129.118 10.1701 129.439 11.2178C129.822 12.4628 129.594 13.6276 129.039 14.7656C128.302 16.2778 127.168 17.3772 125.691 18.1704C124.846 18.6243 123.959 18.8698 123.025 18.9993C122.844 19.0244 122.665 19.0278 122.489 18.9734C122.5 18.9332 122.492 18.9108 122.445 18.9332L122.429 18.9108L122.402 18.9144C122.397 18.7733 122.395 18.6421 122.48 18.5054C122.784 18.0204 122.877 17.4737 122.803 16.9192C122.731 16.3948 122.668 15.8383 122.099 15.5596C121.354 15.1416 120.395 15.2024 119.869 15.7685C119.248 16.4376 119.043 17.4103 119.453 18.3483C119.867 19.2995 120.642 19.8951 121.423 20.5009C122.56 21.3851 123.677 22.2862 124.645 23.3696C125.345 24.1548 125.918 24.9954 126.244 25.9939C126.542 26.9122 126.594 27.8499 126.48 28.8101C126.327 30.1169 125.855 31.3201 125.32 32.4981C125.006 33.1868 124.552 33.804 124.088 34.4017C123.206 35.5386 122.208 36.5685 120.991 37.3473C119.928 38.028 118.803 38.5747 117.593 38.9792C115.664 39.6233 113.717 39.6437 111.757 39.3249C110.451 39.1114 109.291 38.529 108.388 37.5224C108.101 37.2028 107.86 36.8472 107.637 36.4784C107.578 36.2971 107.512 36.1173 107.46 35.9344C106.872 33.8301 107.596 32.0525 108.938 30.5001C109.813 29.4871 111.019 28.905 112.268 28.4351C112.942 28.1813 113.65 28.0653 114.344 27.892C114.805 28.0393 114.834 28.0912 114.651 28.5636C114.423 29.1549 114.258 29.7542 114.362 30.3947C114.401 30.6261 114.412 30.8717 114.605 31.0477C114.604 31.2682 114.75 31.4193 114.908 31.5112C115.843 32.057 117.055 31.9596 117.882 31.1138C118.658 30.3224 118.593 28.8531 117.8 28.0626Z" fill="#F9F9F9"/>
<path id="Vector_7" fill-rule="evenodd" clip-rule="evenodd" d="M24.9727 49.6146L24.9826 49.6361C24.9844 49.779 25.064 49.8835 25.147 49.988C25.715 50.6962 26.5134 50.6596 27.2182 50.0845C28.1257 49.3439 28.583 48.3293 28.7053 47.1771C28.784 46.4331 28.5492 45.7711 28.0095 45.2335C27.571 44.8405 26.7771 44.8761 26.2617 45.2674C25.406 45.9186 25.0228 46.8421 24.7834 47.8309C24.6743 48.2783 24.6521 48.7615 24.8584 49.2117C24.8378 49.2627 24.8451 49.3036 24.8968 49.3315C24.9085 49.3663 24.9192 49.402 24.9309 49.436C24.9165 49.5021 24.9005 49.5691 24.9727 49.6146ZM27.9327 30.0232C27.9908 29.9982 28.0489 29.9722 28.1079 29.9463C28.5133 29.7339 28.9367 29.5569 29.3664 29.3953C28.9706 29.4426 28.5661 29.3175 28.1982 29.5043C27.3361 29.5176 26.684 30.0241 26.0044 30.4537C25.9205 30.5063 25.7669 30.6725 25.8919 30.8118C25.9946 30.9252 26.1526 30.9611 26.3198 30.8708C26.8555 30.5815 27.3979 30.3046 27.9373 30.0222L27.9569 30.0277L27.9327 30.0232ZM21.123 43.8453L21.1267 43.8552L21.1203 43.8481C21.206 43.8097 21.2625 43.7445 21.2911 43.656L21.3044 43.6615L21.2918 43.6517C21.3213 43.6068 21.3499 43.5613 21.3794 43.5167L21.3901 43.5293L21.3821 43.5149C22.0967 42.845 22.7682 42.1295 23.5722 41.5606C23.6472 41.508 23.7268 41.4373 23.7009 41.3203C23.9643 41.4785 24.0268 41.1856 24.177 41.0989C24.2554 41.0532 24.2376 40.905 24.1448 40.9078C24 40.9103 23.7901 40.8854 23.7876 41.1373C23.6733 40.9192 23.5169 41.0907 23.4311 41.1364C22.4664 41.6401 21.5769 42.2385 20.9954 43.1969L20.9767 43.1987L20.9918 43.2085C20.965 43.2478 20.9374 43.2863 20.9097 43.3247L20.8836 43.3194L20.8864 43.348C20.8676 43.3898 20.848 43.431 20.8292 43.4728C20.2505 43.8355 20.3577 44.4796 20.1343 45.035C20.6961 44.9413 20.7355 44.4849 20.914 44.1456C20.9337 44.1115 20.9524 44.0777 20.9721 44.0438C21.0462 44.0518 21.0677 44.0036 21.0775 43.9437C21.0926 43.9114 21.1079 43.8785 21.123 43.8453ZM28.508 51.0195L28.5117 51.0366L28.5089 51.025C28.8654 50.7266 29.1199 50.3532 29.2877 49.9226C29.3467 49.7735 29.3172 49.6199 29.1672 49.5476C29.0369 49.4843 28.9242 49.5959 28.867 49.6896C28.6678 50.0191 28.3642 50.2603 28.1499 50.5748L28.1266 50.572L28.1435 50.5864C28.0507 50.6774 27.9775 50.7801 27.9613 50.9141C27.8417 50.9516 27.6942 50.9786 27.7532 51.1526C27.798 51.285 27.9855 51.3019 28.1303 51.2045C28.2293 51.2152 28.3116 51.1839 28.3722 51.1043C28.3893 51.1027 28.4053 51.1009 28.4214 51.0991C28.417 51.092 28.4115 51.0849 28.4072 51.0767C28.4401 51.0579 28.4751 51.0382 28.508 51.0195ZM35.325 29.3255C36.8067 30.6243 37.5007 32.2338 37.3436 34.2213C37.1854 36.231 36.7941 38.2023 36.4726 40.1859C36.3128 41.1712 36.1896 42.1645 35.9849 43.1397C35.6563 44.7074 35.4197 46.2883 35.1615 47.8674C34.9802 48.9751 34.8444 50.0852 34.9614 51.2097C35.0392 51.9565 35.2839 52.6425 35.7716 53.2187C36.3709 53.9269 36.2092 53.7975 35.7178 54.4844C35.1775 55.2398 34.4085 55.7616 33.5136 56.0385C32.489 56.3555 31.5387 56.101 30.6553 55.5481C30.3373 55.3489 30.0533 55.1042 29.7988 54.8273C29.4887 54.4914 29.4869 54.4878 29.2075 54.871C28.8028 55.4285 28.3704 55.9544 27.838 56.4012C25.9079 58.0169 23.6705 58.2213 21.4983 57.0014C20.6657 56.5343 20.0262 55.8705 19.4723 55.0837C19.1081 54.5655 18.8767 53.9877 18.539 53.4652C18.5927 53.0722 18.3275 52.7605 18.2712 52.3942C18.1585 51.651 18.0791 50.9061 18.0997 50.1513C18.1692 47.6075 18.6185 45.1798 19.9807 42.9584C21.0668 41.1872 22.6834 40.1655 24.5387 39.4446C25.5748 39.0419 26.6938 38.99 27.7873 38.8283C28.8572 38.6685 29.8166 38.3093 30.5874 37.4438C31.2323 36.7213 31.2448 35.0251 30.4855 34.3812C30.1498 33.8783 29.6424 33.8728 29.1359 33.9549C28.0516 34.1337 27.4059 34.8751 26.9074 35.7771C26.7565 36.0497 26.6179 36.3346 26.5233 36.6293C26.4375 36.8955 26.2768 37 26.0223 37.0052C25.0173 37.0295 24.0725 36.8303 23.2971 36.1558C22.9274 35.8334 22.7316 35.3619 22.4817 34.943C22.4504 34.5321 22.4781 34.123 22.5487 33.7192C22.8165 32.1892 23.6447 30.986 24.82 30.0232C25.9507 29.0978 27.2467 28.4957 28.6795 28.16C30.983 27.6195 33.134 27.9296 35.1444 29.1817L35.1597 29.1979C35.1526 29.2363 35.1686 29.2523 35.207 29.2471C35.2052 29.2693 35.2159 29.28 35.2374 29.2791C35.2427 29.339 35.2793 29.3399 35.325 29.3255Z" fill="#F9F9F9"/>
<path id="Vector_8" fill-rule="evenodd" clip-rule="evenodd" d="M79.8562 28.4324C79.9482 28.3905 79.9402 28.3235 79.9036 28.2483C79.9651 28.1315 79.9731 28.0055 79.9722 27.8777L79.9866 27.8841L79.9713 27.8777C80.0401 27.8063 80.0634 27.7197 80.0554 27.6232C80.1233 27.6124 80.1009 27.5786 80.0751 27.5445C80.2832 26.6184 80.5109 25.6965 80.6941 24.7668C80.9851 23.2912 81.2575 21.8111 81.5122 20.3294C81.5792 19.9373 81.7784 19.5549 81.6542 19.137C81.6336 19.0663 81.6327 18.9806 81.5479 18.9698C81.4763 18.96 81.4495 19.0306 81.4388 19.0896C81.33 19.7006 81.113 20.2828 80.9627 20.8796C80.8395 21.3725 80.7814 21.8916 80.6753 22.3963C80.4448 23.4904 80.2027 24.5818 80.0133 25.6832C79.8348 26.7236 79.5238 27.7455 79.5327 28.8156C79.3516 28.8799 79.3996 29.0317 79.3989 29.1648C79.398 29.4211 79.4561 29.6847 79.2899 29.9482C79.4801 29.8544 79.6381 29.7856 79.6516 29.5855C79.6685 29.3255 79.7838 29.0799 79.7552 28.8138C79.8713 28.7084 79.8284 28.562 79.8562 28.4324ZM86.2809 2.6788C86.965 2.51805 87.5984 2.23841 88.2226 1.89016C88.0262 1.76142 87.8396 1.74016 87.6466 1.76966C87.0535 1.86066 86.5639 2.10716 86.2925 2.67263L86.2953 2.66463L86.2809 2.6788ZM89.9547 1.15777C90.688 1.62674 91.1595 2.31363 91.382 3.12446C91.5526 3.74527 91.5553 4.40906 91.4124 5.05662C90.9899 6.96889 90.5307 8.87225 90.1155 10.7873C89.6518 12.9257 89.2319 15.0737 88.6925 17.1959C88.4684 18.0803 88.3477 18.9904 88.1369 19.8783C87.9172 20.8027 87.7072 21.7281 87.5243 22.6606C87.1349 24.6435 86.6248 26.6004 86.2139 28.5799C85.8441 30.3643 85.4529 32.1463 85.0598 33.9264C84.6222 35.9059 84.1596 37.8977 84.2024 39.9529C84.2202 40.7996 84.5419 41.5427 84.9357 42.2662C85.01 42.403 85.1127 42.5253 85.1993 42.6556C85.8414 43.624 85.8611 43.3711 85.1376 44.2178C84.3668 45.1183 83.4137 45.7988 82.2766 46.2339C81.2952 46.6089 80.3241 46.6947 79.3095 46.5044C78.2941 46.3133 77.4901 45.7631 76.8524 44.9797C76.6649 44.7492 76.5512 44.4483 76.3557 44.2107C76.3683 44.1785 76.3665 44.1588 76.3244 44.1714L76.3155 44.149C76.3422 44.0838 76.3299 44.0331 76.2647 43.999L76.2654 44.0036C76.0868 43.2051 75.9949 42.4048 76.0628 41.5793C76.1504 40.4969 76.4067 39.4427 76.5675 38.3738C76.704 37.4607 76.8745 36.5516 77.0675 35.6521C77.3319 34.4187 77.5393 33.1743 77.8008 31.94C78.1109 30.4823 78.3485 29.0086 78.6334 27.5454C78.8467 26.4495 79.1362 25.3697 79.3354 24.2692C79.5231 23.2402 79.7337 22.2149 79.9239 21.186C80.1768 19.8184 80.5251 18.4688 80.8182 17.1094C81.1013 15.7919 81.3647 14.4716 81.6382 13.1534C81.8632 12.0716 82.0758 10.9873 82.3178 9.91013C82.6331 8.51417 83.0216 7.13238 83.2896 5.72728C83.5406 4.41706 83.9426 3.20312 84.8456 2.19199C85.7566 1.17194 86.8937 0.700448 88.2585 0.738863C88.7282 0.751439 89.1766 0.874686 89.6357 0.946027L89.6314 0.944198C89.6751 1.03635 89.7412 1.08894 89.8493 1.06653C89.8518 1.09603 89.8681 1.10952 89.8985 1.10586C89.8752 1.16851 89.9074 1.17103 89.9547 1.15777Z" fill="#F9F9F9"/>
<path id="Vector_9" fill-rule="evenodd" clip-rule="evenodd" d="M2.79468 61.2065C2.80818 61.2172 2.82327 61.2271 2.83494 61.2397C2.83746 61.2422 2.82602 61.2575 2.82053 61.2664C2.81161 61.2458 2.80268 61.2262 2.79468 61.2065Z" fill="#F9F9F9"/>
<path id="Vector_10" fill-rule="evenodd" clip-rule="evenodd" d="M59.0902 17.5701C58.4954 16.8931 57.8639 16.2501 57.244 15.5945C57.1297 15.4729 56.992 15.4827 56.8438 15.5426C56.5374 15.6677 56.3051 15.9025 56.0346 16.0777C55.1547 16.6457 54.3224 17.2843 53.4078 17.7997C53.1576 17.9399 52.9422 18.1409 52.7056 18.3053C52.6333 18.3554 52.5288 18.4491 52.4529 18.3526C52.3813 18.2616 52.4833 18.1722 52.5503 18.1098C53.5123 17.2148 54.4715 16.3171 55.4854 15.4784C55.5871 15.3935 55.6818 15.3005 55.7854 15.2166C56.0113 15.0352 55.9999 14.8219 55.8524 14.6092C55.0198 13.414 54.182 12.2225 53.3461 11.0294C53.3255 11.0008 53.2916 10.9747 53.2836 10.9418C53.2566 10.8256 53.0504 10.7239 53.2031 10.6025C53.3113 10.5167 53.4229 10.6523 53.5095 10.73C53.8651 11.0561 54.1393 11.4554 54.4832 11.7947C55.0573 12.3611 55.589 12.972 56.1373 13.5652C56.4016 13.8517 56.5617 13.851 56.8786 13.6141C57.544 13.1168 58.2265 12.6432 58.8901 12.1441C59.4965 11.6886 60.1736 11.333 60.7436 10.8265C60.8579 10.7257 60.9883 10.6452 61.1856 10.5979C61.1232 10.8247 60.9874 10.9633 60.8605 11.0847C60.0531 11.8601 59.2331 12.622 58.4195 13.3919C58.1845 13.6134 57.9675 13.8554 57.7228 14.0653C57.5154 14.2438 57.5495 14.4261 57.6736 14.6092C58.3105 15.5435 58.9768 16.4582 59.5868 17.4094C59.9138 17.9186 60.314 18.3874 60.5239 18.9796C59.9888 18.5625 59.5342 18.0748 59.0902 17.5701ZM57.0393 17.32C56.9339 17.7425 56.9511 18.1829 56.8626 18.6037C56.7224 19.2636 56.7634 19.948 56.5759 20.5989C56.5562 20.6678 56.5553 20.7437 56.3739 20.8045C56.4053 20.3954 56.432 20.0291 56.4606 19.6637C56.5214 18.86 56.5795 18.056 56.6481 17.2523C56.6579 17.1245 56.609 16.8995 56.8189 16.9244C56.9948 16.945 57.086 17.1343 57.0393 17.32ZM53.1764 14.7531C52.4154 14.6111 51.6357 14.5662 50.8987 14.2887C52.0706 14.2153 53.2281 14.3707 54.3894 14.4636C54.5037 14.4725 54.7011 14.4887 54.6759 14.6611C54.6519 14.8235 54.4866 14.9191 54.3197 14.9031C53.9364 14.8665 53.5532 14.8235 53.1764 14.7531ZM56.4928 11.9207C56.5697 11.3383 56.6723 10.7586 56.7599 10.1781C56.8171 9.80032 56.8573 9.41983 56.9234 9.04277C56.9385 8.94902 56.9591 8.78119 57.0832 8.79719C57.2323 8.81594 57.1592 8.97395 57.1528 9.06884C57.1242 9.54925 57.0842 10.029 57.0476 10.5085C57.0098 11.0008 56.9733 11.4929 56.9358 11.9842C56.9241 12.1297 56.9339 12.2879 56.7098 12.2682C56.4839 12.2467 56.4741 12.0636 56.4928 11.9207ZM62.2646 14.7512C62.5665 14.7746 62.8523 14.8585 63.2239 15.0318C62.3639 15.1354 61.6278 15.014 60.8881 14.9264C60.4111 14.8692 59.9307 14.8432 59.4528 14.8013C59.285 14.7853 59.0456 14.7771 59.0785 14.5646C59.1117 14.3582 59.3278 14.3271 59.5475 14.3591C60.4532 14.4931 61.35 14.6824 62.2646 14.7512ZM62.6701 20.6954C63.432 20.4784 64.1824 20.5491 64.9308 20.7554C64.9237 20.5454 64.771 20.4517 64.6235 20.3399C63.9295 19.814 63.1516 19.7129 62.3227 19.8736C62.0637 19.9228 61.8958 19.8576 61.7511 19.6246C61.4179 19.0816 61.031 18.5705 60.7141 18.0204C60.3951 17.4666 59.9611 16.9914 59.6806 16.4145C59.5797 16.2053 59.5628 16.0811 59.8521 16.0518C60.5854 15.9794 61.3196 16.0143 62.0529 16.0187C63.1132 16.0258 64.1717 15.9812 65.2326 15.9947C66.6878 16.0134 68.1446 15.9874 69.6005 16.0018C70.0953 16.0061 70.599 16.0356 71.1288 15.8419C70.8741 15.6462 70.6294 15.6133 70.3811 15.5739C69.3101 15.4059 68.2411 15.231 67.1701 15.0567C65.7311 14.8235 64.3002 14.545 62.8596 14.3188C61.9333 14.1734 60.9963 14.0671 60.0862 13.8231C59.6744 13.7124 59.6387 13.5874 59.9271 13.273C60.2943 12.8746 60.664 12.4791 61.0258 12.0752C62.06 10.9203 63.0883 9.76008 64.1234 8.60695C64.4932 8.19514 64.8254 7.75131 65.2292 7.36899C65.314 7.28851 65.448 7.14399 65.3435 7.02326C65.2326 6.89727 65.0952 7.02966 64.9941 7.09918C64.1797 7.65665 63.3508 8.19697 62.563 8.79011C61.2249 9.79666 59.8013 10.6791 58.4426 11.6554C58.3409 11.7286 58.2435 11.8681 58.096 11.7716C57.9613 11.6849 58.013 11.5313 58.0121 11.4028C58.005 10.3683 57.9908 9.33408 58.0095 8.29872C58.0381 6.66152 58.0194 5.02341 58.0326 3.38622C58.0381 2.7414 57.9352 2.6664 57.3368 2.8754C57.0304 2.98149 57.177 3.20855 57.1484 3.38622C56.9305 4.73759 56.7151 6.08896 56.5045 7.44125C56.307 8.70253 56.1185 9.96381 55.9246 11.2249C55.9059 11.3438 55.8917 11.4794 55.7568 11.5214C55.6246 11.5635 55.5318 11.4634 55.4442 11.3804C54.8493 10.8204 54.2554 10.2586 53.6595 9.69834C52.5823 8.68652 51.5042 7.67448 50.4263 6.66244C50.111 6.36587 49.7991 6.06495 49.4776 5.77273C49.4008 5.70413 49.2892 5.63073 49.189 5.73706C49.1106 5.82006 49.1543 5.91495 49.2151 5.99979C49.6374 6.59819 50.0609 7.1975 50.4826 7.79681C50.6897 8.09155 50.8987 8.3863 51.0997 8.68561C51.5687 9.38485 52.0269 10.0914 52.503 10.7863C52.9987 11.5098 53.5095 12.2234 54.016 12.9407C54.1285 13.0996 54.1534 13.2739 53.9204 13.2775C53.6193 13.2828 53.3264 13.3587 53.0335 13.3578C52.444 13.3562 51.8554 13.2695 51.2632 13.3212C50.588 13.3802 49.9153 13.2409 49.2382 13.3043C48.8632 13.3409 48.4585 13.4248 48.1539 13.0809C48.1315 13.2855 47.9682 13.2775 47.8287 13.2864C46.9793 13.3427 46.1298 13.3203 45.2797 13.3114C44.6954 13.3052 44.1112 13.3436 43.5272 13.3445C43.4021 13.3445 43.1966 13.4134 43.1609 13.2336C43.1305 13.0855 43.2977 12.9997 43.4289 12.9345C44.472 12.4164 45.5664 12.2387 46.706 12.5092C47.2098 12.6291 47.6929 12.83 48.1521 13.0793C47.9717 12.8737 47.8207 12.63 47.6063 12.4701C46.2915 11.4947 44.7999 11.4028 43.3084 11.8395C42.0409 12.212 41.0977 13.1177 40.3562 14.2011C39.8964 14.8754 39.9259 14.9584 40.4769 15.5577C40.5412 15.6275 40.6073 15.6972 40.6733 15.7667C40.7198 15.6579 40.768 15.5525 40.8297 15.448C41.1288 14.9396 41.5219 14.51 41.9104 14.0714C42.5401 13.3614 43.2682 13.2025 43.9326 13.8993C44.3005 13.8412 44.6419 13.9752 44.9911 14.0456C45.2653 14.0742 45.5092 13.9082 45.8003 13.9608C46.824 14.1473 47.8539 14.3056 48.882 14.4672C49.2133 14.5198 49.5062 14.62 49.6688 14.9433C49.7385 14.7746 49.8832 14.8075 50.0099 14.829C51.2445 15.0407 52.4769 15.2559 53.7096 15.4765C53.9248 15.514 53.9739 15.6428 53.8159 15.806C53.2898 16.3528 52.7584 16.894 52.2295 17.4371C51.5669 18.1187 50.9058 18.801 50.2432 19.4817C50.1931 19.5334 50.1421 19.5853 50.0868 19.6326C50.0342 19.6781 49.9795 19.7479 49.902 19.7129C49.8188 19.6763 49.8455 19.5887 49.8483 19.5201C49.8599 19.2663 49.8741 19.0137 49.8867 18.7608C49.8688 18.817 49.8313 18.8751 49.8357 18.9288C49.9411 19.9781 49.123 20.5409 48.6094 21.2627C48.8113 21.1779 49.0105 21.0823 49.2167 21.0108C49.3544 20.9634 49.5025 20.9527 49.6251 21.0688C50.1682 20.6321 50.7469 20.2516 51.3391 19.8819C52.6038 19.0914 53.8365 18.249 55.0859 17.4327C55.3496 17.2612 55.4387 17.3184 55.4424 17.638C55.4495 18.541 55.4559 19.4442 55.463 20.3472C55.4746 21.7413 55.5121 23.1375 55.4916 24.5326C55.4737 25.8188 55.4808 27.1043 55.4996 28.3905C55.5014 28.4582 55.4737 28.5512 55.5656 28.5725C55.6612 28.5949 55.7328 28.5208 55.7559 28.4413C55.8176 28.2332 55.8748 28.0223 55.9086 27.809C56.1114 26.5031 56.2516 25.1838 56.5196 23.8914C56.9268 21.9201 57.0403 19.9022 57.52 17.9454C57.5538 17.8059 57.5262 17.6211 57.678 17.5674C57.8102 17.5219 57.9112 17.6721 58.0022 17.7586C58.7982 18.5115 59.5887 19.2691 60.3773 20.0282C60.7864 20.424 60.7713 20.5052 60.2968 20.8251C59.5653 21.319 59.025 21.9853 58.5739 22.7355C58.3418 23.1222 58.2613 23.5779 58.0326 23.9547C57.7514 24.4182 57.737 24.9382 57.6165 25.4348C57.5611 25.666 57.6967 25.7723 57.9352 25.7241C58.1362 25.6841 58.3372 25.6669 58.5373 25.7314C58.5837 24.8364 58.9125 24.027 59.2795 23.226C59.5422 22.655 59.9762 22.2281 60.397 21.788C60.6016 21.5735 60.8552 21.4002 61.0955 21.2431C61.5028 20.976 61.8012 21.3224 62.095 21.5609C62.2994 21.7262 62.3691 21.9156 62.1771 22.1399C62.4119 22.1479 62.6211 22.2149 62.7782 22.4015C62.981 22.3925 63.1569 22.4829 63.3855 22.6052C63.2499 22.3283 63.3339 22.0354 63.1034 21.871C62.8194 21.6682 62.6854 21.3556 62.4942 21.0858C62.3593 20.8955 62.4325 20.7624 62.6701 20.6954Z" fill="#F9F9F9"/>
<path id="Vector_11" fill-rule="evenodd" clip-rule="evenodd" d="M49.9939 40.3324C49.9868 40.404 49.9724 40.4754 49.9617 40.5469C49.8848 41.7588 49.4758 42.8834 49.0498 44.0036C49.0329 44.0481 49.015 44.1062 48.98 44.1277C48.8346 44.2126 48.7978 44.5116 48.579 44.4117C48.3469 44.3045 48.554 44.1044 48.5906 43.9722C48.806 43.1996 49.0605 42.4368 49.2821 41.6651C49.39 41.2908 49.4616 40.9059 49.6054 40.5414C49.6447 40.4415 49.6786 40.3395 49.7223 40.2414C49.7598 40.1566 49.7902 40.0439 49.9214 40.0869C50.0547 40.1305 50.0028 40.2414 49.9939 40.3324ZM47.2992 44.2473C47.0865 44.7083 46.7989 45.1137 46.4362 45.4736C45.7923 46.1122 45.158 46.0105 44.7883 45.1924C44.7643 45.1388 44.7473 45.0817 44.7268 45.0254L44.7213 45.019C44.6481 44.9994 44.657 44.9502 44.6767 44.8967C44.4336 43.758 44.4354 42.611 44.5543 41.4579C44.6982 40.0681 44.9554 38.6996 45.3823 37.3743C45.7441 36.2498 46.1316 35.117 46.8588 34.1605C47.1169 33.8212 47.3742 33.4174 47.893 33.3977C47.9959 33.3931 48.0832 33.4014 48.1628 33.4638L48.196 33.4601L48.2049 33.4905C48.2335 33.5084 48.262 33.5255 48.2906 33.5424C48.7006 33.7933 48.8666 34.2097 48.9622 34.6366C49.2133 35.7709 49.2311 36.9124 49.0774 38.0701C48.9041 39.3803 48.6174 40.6629 48.271 41.9331C48.0485 42.745 47.6483 43.4863 47.2992 44.2473ZM50.5896 26.4012C50.1119 26.6523 49.3196 26.7318 48.7953 26.6058C49.3436 26.1055 49.9322 26.1154 50.5896 26.4012ZM41.0922 33.9451C40.9075 35.1787 40.6617 36.4041 40.4339 37.6315C40.3902 37.8673 40.3143 38.0959 40.2526 38.328L40.2517 38.3326C40.2759 38.462 40.2661 38.588 40.2089 38.7078C40.2169 39.0552 39.9766 39.3526 40.0088 39.7073C40.015 39.7786 39.9633 39.8493 39.873 39.8376C39.7623 39.8235 39.7559 39.7331 39.7605 39.6474C39.7774 39.2946 39.782 38.9408 39.8838 38.5988C39.8767 38.4961 39.9034 38.4014 39.9553 38.3139C39.9142 38.2521 39.9176 38.1943 39.9704 38.1424C39.9471 38.1353 39.9348 38.1199 39.9357 38.0959V38.0923C39.9338 38.0959 39.932 38.1003 39.9311 38.1039L39.9357 38.0834V38.0923C39.9517 38.0449 39.9686 37.9976 39.9855 37.9503C40.0294 37.4546 40.0857 36.9597 40.2 36.4729C40.2151 36.4416 40.2313 36.4096 40.2464 36.3773C40.2393 36.3586 40.2295 36.3408 40.2258 36.3211C40.224 36.314 40.2384 36.3042 40.2455 36.2962C40.2501 36.2193 40.2553 36.1434 40.2599 36.0675C40.2455 35.9969 40.2455 35.9308 40.3098 35.8816C40.3644 35.0921 40.5448 34.3231 40.6804 33.5459C40.7046 33.4066 40.7422 33.2683 40.7735 33.1297C40.7627 33.0065 40.7305 32.8814 40.8233 32.7732C40.8359 32.6982 40.8494 32.6232 40.8617 32.5473C40.8162 32.4001 40.7385 32.2437 40.9591 32.1634C40.9717 32.0571 40.9573 31.9409 41.0655 31.8684C41.0691 31.4452 41.1181 31.0343 41.3762 30.6753C41.3495 31.1861 41.4334 31.7006 41.2763 32.2C41.3273 32.7922 41.1789 33.3691 41.0922 33.9451ZM56.1704 34.4589C56.132 32.6911 55.8675 30.9433 55.195 29.2855C54.8394 28.41 54.3812 27.5973 53.7579 26.8773C53.4167 26.4826 53.0003 26.1762 52.6278 25.8188C52.5796 25.8323 52.5439 25.827 52.5457 25.7644C52.5208 25.7706 52.5064 25.761 52.5021 25.7358C52.46 25.7511 52.4449 25.734 52.4492 25.6921C52.4065 25.6571 52.3644 25.6206 52.3216 25.5849C51.4445 25.2124 50.5486 24.9606 49.5759 25.0624C49.1097 25.1116 49.0418 25.0132 49.1293 24.5578C49.1694 24.3488 49.2302 24.1441 49.2821 23.9379C49.3123 23.6539 49.315 23.3635 49.3793 23.0866C49.4545 22.7598 49.291 22.4024 49.5142 22.0997C49.5597 21.7985 49.5123 21.4869 49.6196 21.193C49.6214 21.1519 49.6232 21.11 49.6251 21.0698C49.5025 20.9527 49.3543 20.9635 49.2167 21.0108C49.0095 21.0824 48.8113 21.178 48.6085 21.2637C48.6085 21.2637 48.6085 21.2644 48.6075 21.2644L48.6192 21.268C48.6192 21.268 48.6023 21.2717 48.6014 21.2726C48.6032 21.2699 48.6059 21.2671 48.6075 21.2644L48.6066 21.2637H48.6085C49.122 20.5418 49.9404 19.9791 49.8357 18.9289C49.8313 18.8751 49.8688 18.8171 49.8867 18.7617C50.0252 17.4764 50.1412 16.193 49.6687 14.9433C49.5062 14.62 49.2133 14.5199 48.8819 14.4673C47.8539 14.3056 46.824 14.1474 45.8003 13.9608C45.5092 13.9082 45.2652 14.0742 44.9902 14.0465C44.6705 14.21 44.322 14.2896 43.9809 14.3877C43.9111 14.537 43.7289 14.4753 43.6228 14.5844C43.679 14.4332 43.3395 14.235 43.696 14.136L43.703 14.1145L43.7264 14.1197C43.7209 14.0225 43.7728 13.9983 43.8576 14.018C43.8825 13.9777 43.9077 13.9384 43.9326 13.8993C43.2681 13.2026 42.5401 13.3615 41.9104 14.0715C41.5219 14.51 41.1288 14.9397 40.8297 15.448C40.768 15.5525 40.7197 15.6579 40.6733 15.7667C40.7412 15.8964 40.8091 16.0258 40.8771 16.1555C41.5461 16.7582 41.6236 17.5898 41.697 18.4C41.8569 20.2007 41.5845 21.9764 41.3209 23.7504C41.036 25.6768 40.8172 27.6161 40.4502 29.5265C40.2169 30.7423 40.0393 31.964 39.8195 33.1807C39.5909 34.4472 39.4157 35.7236 39.203 36.9938C38.9799 38.3344 38.7334 39.6723 38.5109 41.0141C38.344 42.0206 38.2198 43.0361 38.0385 44.0392C37.9303 44.6315 37.8999 45.2308 37.7911 45.8203C37.5606 47.0726 37.6848 48.3177 37.8892 49.5556C37.958 49.9727 38.1546 50.371 38.293 50.7776C38.3065 50.7945 38.3207 50.8132 38.3341 50.832L38.3547 50.8276L38.3421 50.8427C38.8299 51.6467 39.3951 52.3619 40.1634 52.9498C41.0209 53.6072 41.9783 53.8876 43.0029 53.9742C44.8027 54.126 46.4694 53.7001 48.0217 52.7488C49.0086 52.144 49.8366 51.3796 50.6067 50.5327C51.1996 49.8808 51.6428 49.1207 52.1357 48.3981C52.6189 47.6916 52.9674 46.9126 53.3488 46.1516C53.6774 45.4969 53.8953 44.7975 54.1669 44.1204C54.3937 43.5515 54.6098 42.9799 54.7752 42.3949C55.1575 41.0417 55.4808 39.6732 55.7577 38.2914C56.0113 37.0215 56.1972 35.7424 56.1704 34.4589Z" fill="#F9F9F9"/>
<path id="Vector_12" fill-rule="evenodd" clip-rule="evenodd" d="M43.5272 13.3445C44.1112 13.3436 44.6954 13.3052 45.2797 13.3114C46.1298 13.3203 46.9793 13.3427 47.8287 13.2865C47.9682 13.2775 48.1315 13.2855 48.1539 13.0809L48.1521 13.0793C47.6929 12.8301 47.2098 12.6291 46.706 12.5093C45.5664 12.2387 44.472 12.4164 43.4289 12.9346C43.2977 12.9997 43.1305 13.0855 43.1609 13.2336C43.1966 13.4134 43.4021 13.3445 43.5272 13.3445Z" fill="#F9F9F9"/>
</g>
</g>
<defs>
<clipPath id="clip0_1_82">
<rect width="150" height="63.7957" fill="white" transform="translate(0 0.736694)"/>
</clipPath>
</defs>
</svg>
