<svg width="300" height="37" viewBox="0 0 300 37" fill="none" xmlns="http://www.w3.org/2000/svg">
<g clip-path="url(#clip0_1_111)">
<path d="M187.038 0.737427H189.585C190.852 0.762941 192.112 0.870791 193.365 1.06079C194.594 1.24771 195.795 1.54958 196.966 1.9664C198.005 2.33528 198.959 2.8449 199.831 3.49537C200.362 3.89098 200.813 4.31715 201.186 4.77387C202.111 5.9078 202.65 7.21098 202.805 8.68322C202.871 9.32126 202.879 9.94331 202.829 10.5496C202.74 11.6213 202.427 12.6362 201.891 13.5944C201.54 14.2213 201.093 14.7568 200.552 15.201C200.55 15.2024 200.55 15.2039 200.548 15.2055C200.532 15.2226 200.533 15.2491 200.55 15.2642C200.551 15.2657 200.553 15.2671 200.555 15.2683C201.287 15.7542 201.927 16.3153 202.477 16.9514C203.255 17.8524 203.871 18.8456 204.325 19.9309C204.55 20.468 204.738 21.0611 204.891 21.7103C205.282 23.3745 205.372 25.011 205.158 26.6197C204.695 30.1007 202.997 32.7222 200.064 34.4842C199.55 34.7932 198.993 35.0689 198.39 35.3113C196.536 36.0577 194.549 36.4568 192.43 36.5085C190.134 36.5645 187.845 36.4661 185.563 36.2131C184.664 36.1134 183.776 35.9536 182.898 35.7337C182.464 35.6246 182.048 35.4711 181.648 35.2729C181.622 35.26 181.603 35.2353 181.598 35.2066C181.577 35.0776 181.565 34.9119 181.565 34.7094V28.7271C181.565 28.7241 181.565 28.7211 181.566 28.7181C181.571 28.6814 181.606 28.6556 181.642 28.6606C181.645 28.6611 181.649 28.6617 181.651 28.6627C183.557 29.2041 185.491 29.6465 187.453 29.9898C188.816 30.2278 190.091 30.3596 191.278 30.3851C191.329 30.3857 191.802 30.3947 192.694 30.4122C193.166 30.4209 193.639 30.4143 194.112 30.3926C194.738 30.3645 195.316 30.1839 195.844 29.8505C196.449 29.468 196.944 28.9748 197.329 28.3711C197.832 27.5816 198.166 26.725 198.334 25.801C198.643 24.0839 198.426 22.4524 197.681 20.9066C197.415 20.3533 197.052 19.8512 196.594 19.4C196.099 18.9128 195.507 18.5701 194.819 18.372C194.587 18.3054 194.367 18.2723 194.159 18.2729C193.179 18.2773 192.2 18.2829 191.221 18.2898C191.195 18.2898 191.175 18.3109 191.175 18.3365V24.7842C191.175 24.8129 191.157 24.8389 191.131 24.8496L185.064 27.3468C185.062 27.3475 185.06 27.3481 185.058 27.3485C185.042 27.3515 185.027 27.3414 185.024 27.3257C185.023 27.3238 185.023 27.3217 185.023 27.3197C184.985 18.4998 184.985 9.67827 185.023 0.855184C185.023 0.829763 185.044 0.808548 185.069 0.80752L187.038 0.737427ZM195.913 8.21219C195.233 7.62088 194.437 7.31939 193.528 7.30752C192.804 7.29817 192.042 7.29696 191.243 7.30378C191.215 7.30378 191.192 7.32743 191.192 7.35612L191.197 13.8851C191.197 13.9113 191.219 13.9328 191.245 13.9328C191.998 13.939 192.751 13.9393 193.505 13.9337C194.323 13.9274 195.06 13.6832 195.714 13.201C196.13 12.8944 196.455 12.5231 196.69 12.087C196.917 11.6633 197.036 11.1994 197.05 10.6954C197.078 9.72275 196.698 8.89509 195.913 8.21219Z" fill="#F9F9F9"/>
<path d="M55.1551 15.8197C55.1551 24.0326 48.397 30.7907 40.1841 30.7907C31.9712 30.7907 25.2131 24.0326 25.2131 15.8197C25.2131 7.60676 31.9712 0.848633 40.1841 0.848633C48.397 0.848633 55.1551 7.60676 55.1551 15.8197ZM48.3953 15.8187C48.3953 11.3152 44.6895 7.60938 40.186 7.60938C35.6824 7.60938 31.9766 11.3152 31.9766 15.8187C31.9766 20.3223 35.6824 24.0281 40.186 24.0281C44.6895 24.0281 48.3953 20.3223 48.3953 15.8187Z" fill="#F9F9F9"/>
<path d="M300 8.73367V31.2337L292.765 31.2505H292.765C292.725 31.2505 292.694 31.218 292.694 31.1785C292.694 31.1783 292.694 31.1779 292.694 31.1776C292.72 27.6811 292.722 24.1698 292.703 20.644C292.699 19.9997 292.699 19.3626 292.704 18.7327C292.704 18.7326 292.704 18.7325 292.704 18.7323C292.704 18.7077 292.684 18.6872 292.659 18.6869L286.588 18.6813C286.553 18.6813 286.524 18.71 286.524 18.7449L286.513 31.1767C286.513 31.2023 286.493 31.2238 286.467 31.2253C286.126 31.2489 285.785 31.2589 285.444 31.2552C283.351 31.234 281.268 31.2309 279.196 31.2458C279.163 31.2458 279.136 31.2184 279.136 31.1851L279.141 16.6262C279.141 16.5222 279.111 16.4265 279.051 16.3393L276.577 12.7318C276.53 12.6639 276.548 12.6299 276.631 12.6299L279.084 12.6243C279.109 12.6243 279.13 12.6032 279.13 12.5776C279.138 11.5097 279.14 10.725 279.136 10.2234C279.131 9.75115 279.149 9.29321 279.191 8.84956C279.236 8.36171 279.322 7.91283 279.446 7.50283C279.83 6.23302 280.515 5.11685 281.501 4.15423C282.265 3.40909 283.093 2.81031 283.985 2.35797C285.543 1.56732 287.197 1.129 288.948 1.04302C291.497 0.917132 293.852 1.51564 296.012 2.83835C297.265 3.6047 298.265 4.59629 299.013 5.81311C299.553 6.69227 299.882 7.66573 300 8.73367ZM290.508 12.5982C291.233 12.5982 291.939 12.6063 292.63 12.6225H292.631C292.665 12.6229 292.695 12.5947 292.695 12.5598C292.695 12.5596 292.695 12.5592 292.695 12.5589C292.688 11.2661 292.685 10.0704 292.686 8.97199C292.687 8.58012 292.651 8.28255 292.578 8.07947C292.473 7.78853 292.309 7.52741 292.087 7.29629C291.701 6.89508 291.241 6.61657 290.706 6.46078C289.765 6.18666 288.875 6.24517 288.036 6.63648C287.683 6.80162 287.395 6.99816 287.174 7.2262C286.926 7.48162 286.737 7.78349 286.608 8.1318C286.545 8.29937 286.516 8.51377 286.519 8.7748C286.525 9.32367 286.523 10.5872 286.513 12.5654C286.513 12.5911 286.535 12.6122 286.56 12.6122C287.876 12.6028 289.192 12.5982 290.508 12.5982Z" fill="#F9F9F9"/>
<path fill-rule="evenodd" clip-rule="evenodd" d="M87.0327 1.52899C87.0327 1.50422 87.0126 1.48413 86.9879 1.48413H79.4776C79.4528 1.48413 79.4327 1.50422 79.4327 1.52899V30.2019C79.4327 30.2267 79.4528 30.2467 79.4776 30.2467H86.9879C87.0126 30.2467 87.0327 30.2267 87.0327 30.2019V1.52899Z" fill="#F9F9F9"/>
<path d="M0 35.2879V1.50287H14.0019H14.0021C14.0271 1.50296 14.0477 1.52362 14.0477 1.54866L14.0364 8.27296C14.0364 8.28221 14.0289 8.28978 14.0196 8.28978L6.54299 8.30193C6.51682 8.30193 6.49533 8.32343 6.49533 8.3496L6.50093 12.63C6.50093 12.6684 6.53299 12.7001 6.57196 12.7001H12.6075C12.651 12.7001 12.6869 12.736 12.6869 12.7795L12.6813 19.3608C12.6813 19.3984 12.6503 19.4295 12.6121 19.43L6.54112 19.4524C6.51598 19.4524 6.49533 19.4735 6.49533 19.4991V35.2431V35.2432C6.49523 35.2708 6.47252 35.2935 6.44486 35.2935L0 35.2879Z" fill="#F9F9F9"/>
<path fill-rule="evenodd" clip-rule="evenodd" d="M24.0355 1.50941C24.0355 1.49604 24.0246 1.48511 24.0112 1.48511H16.4729C16.4595 1.48511 16.4486 1.49604 16.4486 1.50941V30.2216C16.4486 30.2349 16.4595 30.2459 16.4729 30.2459H24.0112C24.0246 30.2459 24.0355 30.2349 24.0355 30.2216V1.50941Z" fill="#F9F9F9"/>
<path d="M63.8617 23.5346L63.8729 30.1832C63.8729 30.2181 63.8438 30.2468 63.8084 30.2468H56.5598C56.5246 30.2468 56.4955 30.2179 56.4953 30.1827C56.4953 30.1825 56.4953 30.1823 56.4953 30.1823V1.57109C56.4953 1.52389 56.5341 1.48511 56.5813 1.48511H70.5953C70.6888 1.48511 70.7801 1.49819 70.8692 1.52436C71.7769 1.78857 72.6358 2.1867 73.4458 2.71875C75.7523 4.23585 77.2091 6.3066 77.8159 8.9309C77.9579 9.54464 78.039 10.1611 78.0589 10.7804C78.1187 12.6683 77.6894 14.4281 76.771 16.0599C76.462 16.6088 76.1075 17.1197 75.7075 17.5926C74.5193 18.9975 73.0222 20.0122 71.2159 20.6365C71.2142 20.6371 71.2126 20.6377 71.2111 20.6386C71.1933 20.6476 71.1864 20.6702 71.1957 20.6884C71.1964 20.6899 71.1972 20.6913 71.1981 20.6926L77.6112 30.1365C77.6586 30.2063 77.6405 30.2412 77.557 30.2412L68.7991 30.2225C68.7394 30.2226 68.6828 30.1929 68.6477 30.1431L63.9365 23.5103C63.8866 23.4393 63.8617 23.4474 63.8617 23.5346ZM64.1533 7.01501C64.1582 9.54772 64.1601 12.0802 64.1589 14.6122C64.1589 14.6166 64.1523 14.7745 64.1393 15.086C64.1318 15.2748 64.1411 15.4745 64.1673 15.6851C64.171 15.715 64.1965 15.7376 64.2262 15.7374H66.5103C67.1713 15.7374 67.6713 15.6942 68.0103 15.6075C68.9984 15.3559 69.8119 14.8026 70.4505 13.9477C71.096 13.0835 71.3792 12.1073 71.3 11.0188C71.2464 10.2886 71.0371 9.63585 70.672 9.06081C70.0334 8.05642 69.1561 7.40819 68.0402 7.11595C67.6975 7.02623 67.2203 6.97978 66.6084 6.9767C65.7965 6.9723 64.9891 6.97389 64.186 6.98137C64.168 6.98137 64.1533 6.9966 64.1533 7.01501ZM58.9692 23.2823C58.9692 23.2439 58.9375 23.2122 58.8991 23.2122C58.8607 23.2122 58.829 23.2439 58.829 23.2823C58.829 23.3207 58.8607 23.3524 58.8991 23.3524C58.9375 23.3524 58.9692 23.3207 58.9692 23.2823Z" fill="#F9F9F9"/>
<path d="M214.048 23.5187L214.042 30.1841C214.042 30.2184 214.014 30.2467 213.979 30.2468H206.785C206.741 30.2468 206.706 30.2109 206.706 30.1673C206.706 27.9381 206.701 25.6982 206.691 23.4477C206.66 16.1442 206.667 8.84115 206.711 1.53835C206.711 1.51218 206.733 1.49068 206.758 1.49068C211.421 1.48386 216.084 1.48414 220.748 1.49162C220.916 1.49162 221.08 1.51807 221.241 1.57106C223.715 2.38723 225.585 3.87545 226.851 6.03554C227.83 7.70405 228.287 9.52059 228.224 11.4851C228.177 12.9512 227.826 14.3246 227.173 15.6056C225.974 17.954 224.142 19.6 221.677 20.544C221.579 20.5807 221.484 20.6056 221.39 20.6187C221.387 20.6191 221.384 20.6198 221.381 20.6209C221.364 20.628 221.354 20.6487 221.362 20.6669C221.363 20.6694 221.364 20.6717 221.365 20.6739L227.778 30.1169C227.829 30.1916 227.808 30.229 227.718 30.229L218.998 30.2468C218.936 30.2468 218.876 30.2161 218.839 30.1645L214.109 23.4991C214.068 23.4418 214.048 23.4483 214.048 23.5187ZM220.077 8.13741C219.306 7.42713 218.392 7.03994 217.336 6.97573C216.782 6.94209 215.798 6.94741 214.386 6.99162C214.361 6.99265 214.34 7.01424 214.34 7.04022L214.351 15.6851C214.351 15.7107 214.373 15.7318 214.398 15.7318C215.134 15.7368 215.868 15.739 216.604 15.7383C217.307 15.7383 217.839 15.6928 218.197 15.6019C219.366 15.3054 220.272 14.6054 220.912 13.5019C221.443 12.5867 221.609 11.6038 221.412 10.5533C221.233 9.59751 220.788 8.79227 220.077 8.13741Z" fill="#F9F9F9"/>
<path d="M238.703 24.644C240.1 25.1954 241.356 25.0284 242.471 24.143C242.769 23.9063 242.988 23.597 243.127 23.215C243.207 22.9951 243.248 22.6929 243.248 22.3085V1.53744C243.248 1.50875 243.271 1.48511 243.3 1.48511H250.546C250.593 1.48511 250.631 1.52352 250.631 1.57015V20.4571C250.631 21.5954 250.624 22.4365 250.61 22.9804C250.578 24.2639 250.234 25.44 249.579 26.5085C248.935 27.5602 248.088 28.4402 247.038 29.1487C245.095 30.4602 242.967 31.148 240.653 31.2122C240.021 31.2297 239.399 31.2087 238.787 31.1496C237.149 30.9901 235.602 30.5063 234.145 29.6982C233.032 29.0807 232.077 28.2764 231.279 27.2851C230.236 25.9879 229.713 24.4596 229.708 22.7001C229.706 21.3449 229.712 19.9898 229.73 18.6346C229.737 18.0141 229.738 17.391 229.732 16.7655C229.712 14.9431 229.712 13.1206 229.732 11.2982C229.738 10.5998 229.741 9.9767 229.739 9.42903C229.731 7.22529 229.724 5.02128 229.72 2.81688C229.719 2.26987 229.727 1.84333 229.746 1.53744C229.748 1.51137 229.769 1.49071 229.795 1.49071H237.002C237.045 1.49071 237.08 1.52604 237.08 1.56913C237.043 8.67071 237.043 15.7222 237.079 22.7234C237.08 22.8474 237.123 23.0082 237.209 23.2057C237.507 23.8891 238.006 24.3686 238.703 24.644Z" fill="#F9F9F9"/>
<path d="M260.777 10.6496L260.771 30.1767C260.771 30.2025 260.75 30.2239 260.724 30.2244L253.293 30.2468C253.23 30.2468 253.178 30.1941 253.178 30.13L253.183 1.56548C253.183 1.52137 253.22 1.48511 253.264 1.48511H260.926C260.991 1.48511 261.054 1.50941 261.102 1.55333L268.559 8.44305C268.613 8.49352 268.64 8.48165 268.639 8.40754C268.607 6.11156 268.609 3.81529 268.645 1.51875C268.645 1.50034 268.661 1.48511 268.679 1.48511H276.182C276.212 1.48511 276.237 1.50987 276.237 1.54025C276.266 3.82931 276.269 6.10071 276.244 8.35427C276.243 8.46389 276.248 8.77548 276.26 9.28885C276.264 9.49698 276.264 9.70501 276.255 9.91314C276.244 10.2073 276.238 10.4144 276.237 10.5346C276.233 13.1727 276.236 15.8103 276.249 18.4477C276.266 22.3655 276.264 26.2745 276.238 30.1748C276.238 30.2143 276.206 30.2468 276.165 30.2468H268.693C268.657 30.2468 268.627 30.2173 268.627 30.1814L268.621 18.6346C268.621 18.6047 268.609 18.5759 268.589 18.5543L260.809 10.6365C260.788 10.6141 260.777 10.6185 260.777 10.6496Z" fill="#F9F9F9"/>
<path d="M123.823 24.6757C122.421 24.1867 121.029 23.9954 119.65 24.1019C118.417 24.1972 117.129 24.4652 115.786 24.9056C114.33 25.3829 112.917 25.9645 111.546 26.6505C109.093 27.8779 106.758 29.2891 104.542 30.8841C104.54 30.8859 104.537 30.8874 104.535 30.8888C104.505 30.9046 104.467 30.8931 104.451 30.8632C104.45 30.8606 104.449 30.8579 104.448 30.8552L96.143 7.79629C96.1336 7.77068 96.1439 7.74189 96.1663 7.72713C99.9486 5.24115 104.03 3.54208 108.411 2.62993C109.539 2.39507 110.754 2.23769 112.056 2.15797C115.385 1.95302 118.485 2.62713 121.357 4.1804C121.904 4.47573 122.434 4.80189 122.947 5.1589C124.469 6.21872 125.791 7.4804 126.91 8.94395C127.082 9.16946 127.209 9.42741 127.293 9.71778C127.358 9.94834 127.392 10.0664 127.393 10.072C129.753 17.3754 132.101 24.6726 134.435 31.9636C134.473 32.0807 134.45 32.0947 134.364 32.0056C132.395 29.9477 130.212 28.1514 127.815 26.6168C126.561 25.8131 125.23 25.1661 123.823 24.6757Z" fill="#F9F9F9"/>
<path d="M145.056 28.6262C144.295 27.929 143.614 27.162 143.011 26.3253C142.897 26.167 142.81 25.9951 142.75 25.8094C140.355 18.3552 137.964 10.8997 135.576 3.44302C135.552 3.3689 135.563 3.34236 135.607 3.36358C135.62 3.36984 135.635 3.38133 135.65 3.39816C137.234 5.06423 138.961 6.56386 140.832 7.89722C142.023 8.74582 143.281 9.48068 144.606 10.1019C145.299 10.4271 146.014 10.6956 146.75 10.9075C147.981 11.2614 149.221 11.3839 150.467 11.2748C151.33 11.1994 152.215 11.0377 153.122 10.7897C154.791 10.3349 156.404 9.73087 157.961 8.97759C160.584 7.70909 163.081 6.22152 165.454 4.51498C165.456 4.51339 165.459 4.51199 165.461 4.51068C165.49 4.49573 165.525 4.50685 165.541 4.53545C165.542 4.53788 165.543 4.5404 165.544 4.54302L173.84 27.6094C173.855 27.6507 173.838 27.6974 173.801 27.7215C171.523 29.1682 169.138 30.3648 166.644 31.3112C164.121 32.2695 161.517 32.8829 158.83 33.1514C153.519 33.6829 148.927 32.1745 145.056 28.6262Z" fill="#F9F9F9"/>
<path d="M58.8991 23.3524C58.9378 23.3524 58.9692 23.321 58.9692 23.2823C58.9692 23.2436 58.9378 23.2122 58.8991 23.2122C58.8604 23.2122 58.829 23.2436 58.829 23.2823C58.829 23.321 58.8604 23.3524 58.8991 23.3524Z" fill="#F9F9F9"/>
</g>
<defs>
<clipPath id="clip0_1_111">
<rect width="300" height="35.7944" fill="white" transform="translate(0 0.737427)"/>
</clipPath>
</defs>
</svg>
