<svg width="77" height="74" viewBox="0 0 77 74" fill="none" xmlns="http://www.w3.org/2000/svg">
<g clip-path="url(#clip0_27_5)">
<path d="M28.9997 64.8189C28.9997 66.3397 30.2663 67.8605 32.1663 67.8605H44.833C46.733 67.8605 47.9997 66.3397 47.9997 64.8189V61.7772H28.9997V64.8189ZM38.4997 7.02722C26.1497 7.02722 16.333 16.4564 16.333 28.3189C16.333 35.6189 20.133 42.0064 25.833 45.6564V52.6522C25.833 54.1731 27.0997 55.6939 28.9997 55.6939H47.9997C49.8997 55.6939 51.1663 54.1731 51.1663 52.6522V45.6564C56.8663 41.7022 60.6663 35.3147 60.6663 28.3189C60.6663 16.4564 50.8497 7.02722 38.4997 7.02722Z" fill="#4979D1"/>
</g>
<defs>
<clipPath id="clip0_27_5">
<rect width="76" height="73" fill="white" transform="translate(0.5 0.943848)"/>
</clipPath>
</defs>
</svg>
