<svg width="150" height="69" viewBox="0 0 150 69" fill="none" xmlns="http://www.w3.org/2000/svg">
<g id="Clipboard 6" clip-path="url(#clip0_1_75)">
<g id="Group">
<path id="Vector" d="M0 61.6389C0.0214546 61.704 0.0434566 61.769 0.066066 61.834C0.454802 62.9499 1.03572 63.9582 1.79319 64.8304C2.17305 65.2674 2.58379 65.6193 2.94621 65.9305C3.09178 66.0545 3.23667 66.1778 3.37694 66.3067C4.42463 67.2688 5.61309 67.7289 6.66199 68.1343L6.75188 68.1695C7.77471 68.5658 8.91965 68.7962 10.355 68.8958C10.5407 68.9092 10.7364 68.9159 10.9486 68.9159C11.2637 68.9159 11.5607 68.9013 11.8484 68.8879C12.1016 68.8758 12.341 68.8636 12.563 68.8636C13.7026 68.8636 14.7435 68.6333 15.702 68.3835C16.5121 68.1708 17.2743 67.893 17.9474 67.6474C18.7201 67.3654 19.4193 67.1047 20.1332 66.7668C20.8068 66.4483 21.4133 66.0721 21.9773 65.7147L22.1733 65.5901C22.8148 65.1847 23.478 64.7648 24.124 64.2579C25.0096 63.5601 25.8294 62.8484 26.56 62.141C27.6894 61.0482 28.7424 59.7281 29.7779 58.1071C30.1755 57.4854 30.5386 56.8369 30.8756 56.1726C30.7127 55.8529 30.5756 55.5083 30.4646 55.1387C30.4443 55.0707 30.4336 55.005 30.4154 54.9376C30.0726 55.6159 29.7031 56.2771 29.2974 56.911C28.2621 58.5314 27.2091 59.8515 26.0797 60.9449C25.3491 61.6523 24.5296 62.364 23.6438 63.0618C22.9978 63.5693 22.3345 63.9886 21.6931 64.3946L21.497 64.518C20.9331 64.8754 20.3263 65.2516 19.6529 65.5713C18.939 65.9086 18.2398 66.1699 17.4672 66.4513C16.7939 66.6975 16.0318 66.9753 15.2215 67.1874C14.2632 67.4366 13.2226 67.6687 12.0828 67.6687C11.8605 67.6687 11.6214 67.6797 11.3682 67.6918C11.0804 67.7052 10.7832 67.7204 10.4684 67.7204C10.2562 67.7204 10.0604 67.7131 9.87478 67.6997C8.43938 67.6001 7.29451 67.3697 6.27168 66.9728L6.18173 66.9382C5.13306 66.5322 3.94437 66.0733 2.89668 65.1112C2.7564 64.9823 2.61157 64.8584 2.46594 64.7344C2.10328 64.4238 1.69254 64.0719 1.31292 63.6343C0.78914 63.0314 0.349777 62.3628 0 61.6389ZM30.9286 56.2741C30.9334 56.2941 30.9387 56.3148 30.9448 56.3349C31.3417 57.6549 32.071 58.659 33.1136 59.3203C33.892 59.8138 34.7505 60.0654 35.6633 60.0654C36.42 60.0654 37.1858 59.8958 38.0051 59.5494C39.2449 59.0225 40.3231 58.225 41.2099 57.1772C41.7271 56.567 42.2158 55.9258 42.6722 55.2585C42.9803 55.5599 43.3383 55.8359 43.7492 56.0875C44.5581 56.584 45.426 56.8363 46.3298 56.8363C46.3839 56.8363 46.4386 56.8357 46.4933 56.8338C47.7125 56.7955 48.8454 56.3075 49.7644 55.422C50.388 54.8203 51.0462 54.1712 51.637 53.4254C51.6983 53.3476 51.7579 53.2698 51.8162 53.1926C52.5267 53.8041 53.3788 54.2003 54.3306 54.3559C54.5932 54.3985 54.863 54.4203 55.1317 54.4203C56.1813 54.4203 57.0918 54.094 57.767 53.8101C59.0385 53.2759 59.9374 52.3679 60.6485 51.551C61.0575 51.0818 61.4605 50.5451 61.9145 49.8632C61.9218 49.8523 61.9291 49.8419 61.9358 49.831C61.9741 49.9003 62.0136 49.9684 62.0537 50.0364C62.6675 51.0727 63.5634 51.7802 64.644 52.084C65.0494 52.1977 65.4779 52.2567 65.9167 52.2567C66.4504 52.2567 67.0095 52.1704 67.5796 52.0008C68.718 51.6635 69.6686 51.0964 70.4028 50.3142C70.8027 49.8894 71.1333 49.4548 71.4542 49.0348L71.5363 48.926C71.6214 48.8154 71.7016 48.7036 71.7775 48.5924C72.5117 49.2092 73.3663 49.6991 74.3333 50.0547C75.0802 50.3288 75.8758 50.468 76.6987 50.468C77.1473 50.468 77.6128 50.4266 78.0814 50.3446C79.1226 50.161 80.2287 49.9076 81.2753 49.3016C81.344 49.2615 81.4163 49.2226 81.488 49.1831C81.8144 49.005 82.2204 48.7832 82.6076 48.4319C83.2324 47.8624 83.938 47.2188 84.5409 46.4597C85.0831 45.7759 85.8792 44.7317 86.5223 43.5593C86.5922 43.4299 86.6602 43.301 86.7265 43.1722C86.7095 43.1327 86.6937 43.0938 86.6779 43.0555C86.5205 42.672 86.3855 42.2939 86.2749 41.9195C86.1996 42.0678 86.1224 42.2155 86.0415 42.3638C85.3991 43.5356 84.6029 44.5798 84.0602 45.2641C83.4573 46.022 82.7522 46.6663 82.1268 47.2358C81.7397 47.5877 81.3343 47.8089 81.0079 47.987C80.9362 48.0265 80.8633 48.066 80.7946 48.1055C79.748 48.7115 78.6424 48.9649 77.6013 49.1485C77.1327 49.2311 76.6671 49.2719 76.218 49.2719C75.3957 49.2719 74.5995 49.1333 73.8531 48.8586C72.8861 48.503 72.0316 48.0131 71.2974 47.3962C71.2214 47.5081 71.1412 47.6193 71.0561 47.7305L70.9735 47.8381C70.6538 48.2587 70.3225 48.6932 69.9226 49.1181C69.1884 49.9003 68.2378 50.468 67.0995 50.8059C66.5294 50.9748 65.9696 51.0599 65.4366 51.0599C64.9972 51.0599 64.5687 51.0022 64.1633 50.8879C63.0827 50.584 62.1874 49.8766 61.5729 48.8397C61.5328 48.7723 61.4939 48.7036 61.4556 48.6349C61.4483 48.6452 61.4417 48.6568 61.4344 48.6665C60.9797 49.349 60.5774 49.8851 60.1684 50.3549C59.4573 51.1724 58.5583 52.0798 57.2869 52.614C56.6116 52.8985 55.7012 53.2242 54.6515 53.2242C54.3829 53.2242 54.113 53.2024 53.8505 53.1598C52.8987 53.0048 52.0466 52.6079 51.3355 51.9959C51.2778 52.0743 51.2182 52.1515 51.1568 52.2293C50.566 52.9751 49.9078 53.6242 49.2836 54.2265C48.3653 55.1114 47.2318 55.5994 46.0132 55.6377C45.9579 55.6396 45.9038 55.6408 45.8497 55.6408C44.9459 55.6408 44.078 55.3885 43.2684 54.892C42.8582 54.6398 42.5002 54.3644 42.1921 54.0624C41.7356 54.7291 41.2464 55.3715 40.7291 55.9817C39.843 57.0295 38.7648 57.8263 37.5249 58.3527C36.705 58.7003 35.9398 58.8687 35.1831 58.8687C34.2703 58.8687 33.4121 58.6177 32.6333 58.1236C31.9137 57.6677 31.3433 57.0478 30.9286 56.2741ZM13.1116 45.9813C13.2016 46.4858 13.173 47.0206 13.0218 47.5543C12.8643 48.1092 12.628 48.5717 12.3799 49.0324C12.1952 49.3764 12.004 49.7028 11.8192 50.0182C11.5188 50.5293 11.2357 51.0119 11.0341 51.4842C10.3769 53.0194 10.2002 54.046 10.4243 55.0293C10.5046 55.3831 10.6459 55.6961 10.8585 55.9878C10.7118 55.0743 10.9098 54.0921 11.5144 52.6809C11.7159 52.2086 11.9993 51.7261 12.2994 51.2143C12.4843 50.8983 12.6755 50.5725 12.8601 50.2285C13.1083 49.7678 13.3445 49.3047 13.5021 48.7498C13.7685 47.8089 13.6543 46.8657 13.1809 46.0901C13.1585 46.0531 13.1355 46.0166 13.1116 45.9813ZM148.369 29.9463C148.564 30.8397 148.487 31.7897 148.14 32.7153L148.107 32.8035C147.71 33.861 147.3 34.9544 146.773 36.0241C146.224 37.1369 145.608 38.161 144.918 39.2885C144.159 40.5253 143.206 41.5227 142.288 42.4167C141.263 43.4141 140.119 44.2577 138.889 44.9244C137.523 45.6641 136.085 46.0391 134.616 46.0391C134.126 46.0391 133.628 45.9965 133.135 45.912C131.317 45.5978 129.776 44.7956 128.553 43.5265C128.153 43.1114 127.823 42.6762 127.549 42.2459C127.109 42.5395 126.665 42.8124 126.216 43.0609C126.015 43.1722 125.817 43.2864 125.618 43.4013C125.231 43.625 124.832 43.8559 124.402 44.0729C123.915 44.3172 123.373 44.5439 122.743 44.7646L122.233 44.9457C121.43 45.2301 120.601 45.5255 119.725 45.754C118.897 45.9704 118.077 46.0792 117.287 46.0792C116.66 46.0792 116.036 46.0105 115.431 45.875C113.942 45.5395 112.65 44.8241 111.59 43.7483C111.552 43.7107 111.517 43.6736 111.48 43.6353C111.425 43.6706 111.37 43.707 111.315 43.7423C111.1 43.8821 110.883 44.0225 110.669 44.1683C109.639 44.8691 108.453 45.4283 107.044 45.8762C106.068 46.1874 105.066 46.3454 104.065 46.3454C103.984 46.3454 103.905 46.3442 103.823 46.3423C102.112 46.2992 100.584 45.7449 99.2863 44.6983C98.8493 44.3464 98.5296 43.944 98.2725 43.6152C97.9662 43.9866 97.6374 44.3543 97.2855 44.7208C96.3452 45.7005 95.3132 46.4043 94.2186 46.814C93.5604 47.0607 92.9034 47.1853 92.264 47.1853C91.9218 47.1853 91.5808 47.1489 91.2496 47.0784C91.1736 47.062 91.0964 47.048 91.0192 47.0352C90.6607 46.9726 90.1702 46.8875 89.6645 46.6244C89.1254 46.3442 88.6076 45.9449 88.1244 45.4404C87.5628 44.8563 87.1878 44.1963 86.9021 43.5745C86.9793 43.7988 87.065 44.0249 87.1586 44.2522C87.4692 45.0101 87.8837 45.8853 88.6039 46.6365C89.0877 47.1416 89.6062 47.5397 90.1446 47.8211C90.6503 48.0836 91.1414 48.1687 91.4988 48.2313C91.5766 48.2453 91.6538 48.2581 91.7297 48.2745C92.061 48.3456 92.4019 48.3815 92.7441 48.3815C93.3835 48.3815 94.0411 48.2562 94.6987 48.0101C95.7934 47.6011 96.826 46.8966 97.7662 45.9175C98.1175 45.551 98.4463 45.1827 98.752 44.8107C99.0103 45.1396 99.33 45.5419 99.7664 45.8944C101.065 46.941 102.593 47.4947 104.304 47.5385C104.385 47.5403 104.465 47.5415 104.545 47.5415C105.546 47.5415 106.549 47.3835 107.524 47.0729C108.933 46.6244 110.119 46.0652 111.15 45.3638C111.363 45.2186 111.58 45.0782 111.796 44.9372C111.85 44.9025 111.906 44.8667 111.96 44.8308C111.996 44.8691 112.033 44.9068 112.07 44.9445C113.13 46.0208 114.422 46.7356 115.912 47.0711C116.516 47.2078 117.14 47.2759 117.768 47.2759C118.558 47.2759 119.378 47.1659 120.205 46.9501C121.081 46.7216 121.911 46.4262 122.714 46.1412L123.223 45.9601C123.852 45.7394 124.395 45.5127 124.882 45.2684C125.312 45.052 125.712 44.8205 126.098 44.5974C126.297 44.4825 126.496 44.3677 126.696 44.2571C127.144 44.0085 127.59 43.7362 128.028 43.442C128.303 43.8723 128.632 44.3069 129.033 44.722C130.256 45.9917 131.798 46.7945 133.616 47.1082C134.108 47.192 134.606 47.2346 135.097 47.2346C136.565 47.2346 138.002 46.8596 139.369 46.1193C140.601 45.4538 141.743 44.6102 142.769 43.6128C143.686 42.7182 144.639 41.7208 145.398 40.4834C146.088 39.3565 146.705 38.3324 147.253 37.2202C147.78 36.1505 148.19 35.0577 148.587 33.9996L148.62 33.9114C149.013 32.8612 149.061 31.7806 148.756 30.7856C148.662 30.4781 148.531 30.1967 148.369 29.9463ZM8.19986 34.0379L8.20168 34.0427C8.62536 35.2874 9.21618 36.3766 10.0073 37.3703C10.7967 38.3598 11.7114 39.2307 12.7264 39.9588C13.3073 40.3752 13.9242 40.772 14.6138 41.1714C14.9453 41.3634 15.2677 41.5257 15.5794 41.6825C15.8762 41.832 16.1565 41.973 16.4052 42.1213C17.1292 42.5528 17.8603 43.0214 18.6393 43.5533C19.2785 43.9884 19.8714 44.567 20.4032 45.2733C20.4631 45.3529 20.5232 45.4313 20.5842 45.5109C20.8339 45.8355 21.0494 46.1169 21.1345 46.3563C21.2173 46.5922 21.3187 46.7939 21.4124 46.9617C21.3391 46.6979 21.2504 46.4232 21.1458 46.1345C21.1288 46.1005 21.0865 46.0293 21.0551 45.9771C20.9371 45.7783 20.7755 45.5054 20.6542 45.1608C20.5691 44.9201 20.3536 44.6394 20.104 44.3142C20.0429 44.2358 19.9829 44.1568 19.9229 44.0772C19.3908 43.3709 18.7983 42.7929 18.1591 42.3577C17.3801 41.8253 16.6492 41.3573 15.925 40.9258C15.6763 40.7775 15.396 40.6365 15.0991 40.4864C14.7872 40.3302 14.465 40.1673 14.1333 39.9759C13.4437 39.5759 12.8273 39.1797 12.2458 38.7633C11.2312 38.034 10.3165 37.1643 9.52707 36.1742C8.99842 35.5111 8.55942 34.8043 8.19986 34.0379ZM41.2166 32.6199C41.2421 32.75 41.2591 32.8831 41.2682 33.0192C41.3017 33.5565 41.2275 34.0415 41.1679 34.4317C41.1509 34.5417 41.1339 34.6517 41.1205 34.7623C41.0981 34.9471 41.0713 35.1313 41.0427 35.316C41.0166 35.4929 40.9893 35.6691 40.9704 35.8442C40.8957 36.562 40.8288 37.2773 40.7711 37.9726C40.7407 38.3415 40.7164 38.7105 40.6921 39.0806C40.7376 38.7676 40.7802 38.4461 40.8215 38.113C40.9339 37.1977 41.0361 36.2581 41.1339 35.3488C41.188 34.8444 41.2427 34.3405 41.2998 33.8367L41.388 33.0484L41.3995 32.9457C41.3442 32.8345 41.2828 32.7257 41.2166 32.6199ZM148.959 4.44458C149.02 4.62479 149.076 4.80901 149.129 4.99754C149.283 5.54278 149.331 6.05684 149.373 6.51067L149.392 6.71349C149.437 7.17187 149.466 7.668 149.484 8.2745C149.519 9.40747 149.403 10.6145 149.119 12.0744C148.973 12.8201 148.823 13.5503 148.588 14.2746C148.323 15.0897 148.022 15.8818 147.729 16.6479L147.511 17.2218C147.337 17.6837 147.139 18.1627 146.925 18.6477C146.679 19.2026 146.4 19.831 146.09 20.4461C145.773 21.0709 145.419 21.6914 145.135 22.188C144.704 22.9441 144.258 23.725 143.788 24.5C143.38 25.1722 142.891 25.9653 142.357 26.7512L142.29 26.8496C141.534 27.9594 140.753 29.1069 139.922 30.2186C139.176 31.2172 138.393 32.1957 137.635 33.1414L137.071 33.847C136.741 34.2609 136.364 34.7283 135.952 35.1932C135.958 35.2315 135.965 35.2692 135.97 35.3075C136.006 35.55 136.095 35.7816 136.236 35.9973C136.309 36.108 136.359 36.1633 136.385 36.1882C136.416 36.19 136.445 36.1912 136.475 36.1912C136.521 36.1912 136.566 36.1888 136.612 36.1839C136.954 35.7877 137.27 35.3962 137.551 35.0431L138.116 34.3375C138.873 33.3912 139.656 32.4139 140.403 31.4141C141.233 30.3024 142.014 29.155 142.77 28.0458L142.837 27.9467C143.372 27.1614 143.86 26.3683 144.269 25.6961C144.739 24.9212 145.185 24.1402 145.616 23.3841C145.899 22.8869 146.254 22.267 146.57 21.6422C146.881 21.0271 147.159 20.3987 147.405 19.8438C147.62 19.3588 147.817 18.8798 147.991 18.4179L148.21 17.8442C148.502 17.0784 148.804 16.286 149.068 15.4705C149.303 14.746 149.454 14.0161 149.6 13.2706C149.883 11.8101 149.999 10.6037 149.965 9.47049C149.947 8.86393 149.917 8.36786 149.872 7.90947L149.854 7.70641C149.81 7.25307 149.764 6.73877 149.609 6.19353C149.432 5.56526 149.217 4.98502 148.959 4.44458ZM33.2157 18.8713C33.3999 19.4979 33.4708 20.1124 33.431 20.7238C33.4513 21.8908 33.2057 22.9945 32.6619 24.1851C32.1605 25.2846 31.437 26.1817 30.4496 26.9287C29.721 27.4793 28.9223 27.8652 28.0793 28.0737C27.7448 28.157 27.4075 28.1995 27.0762 28.1995C26.2899 28.1995 25.5373 27.9595 24.9024 27.5067C24.5997 27.2921 24.3472 27.0344 24.149 26.7463C24.2755 27.52 24.7025 28.2202 25.3826 28.7034C26.0172 29.155 26.7701 29.395 27.5567 29.395C27.8877 29.395 28.225 29.3531 28.5596 29.2698C29.4029 29.0614 30.2015 28.676 30.9299 28.1248C31.9172 27.3778 32.641 26.4807 33.1422 25.3812C33.6856 24.1912 33.9315 23.0869 33.9113 21.9193C33.976 20.9256 33.7478 19.9228 33.2157 18.8713ZM17.6936 27.0994C17.6869 26.8326 17.7115 26.5227 17.7669 26.1556C17.9267 25.095 18.263 24.2483 18.7953 23.5676C19.321 22.8954 19.8929 22.566 20.649 22.4986C20.7106 22.4937 20.7709 22.4913 20.8313 22.4913C21.1434 22.4913 21.484 22.563 21.8722 22.7107C22.2675 22.8614 22.6329 23.0936 22.9893 23.4212C23.3042 23.7111 23.5481 23.9724 23.7401 24.2301C23.757 24.1669 23.776 24.1037 23.797 24.0405C23.7838 23.9341 23.6076 23.5999 23.5483 23.4892C23.33 23.0747 23.0091 22.6851 22.5092 22.2251C22.1527 21.8975 21.7873 21.6653 21.392 21.5152C21.0035 21.3663 20.6631 21.2951 20.3511 21.2951C20.2908 21.2951 20.2301 21.2976 20.1688 21.303C19.4126 21.3699 18.8408 21.6993 18.3151 22.3709C17.783 23.0522 17.4464 23.8989 17.2866 24.9595C17.1745 25.704 17.1886 26.2115 17.3325 26.6053C17.4171 26.8363 17.5293 26.9973 17.666 27.0824L17.6936 27.0994ZM118.803 13.8462L118.809 13.8548L118.804 13.8564L118.801 13.8431L118.803 13.8462ZM112.023 9.64079C112.034 9.68072 112.044 9.72066 112.054 9.76077C112.207 10.4037 112.249 11.0318 112.18 11.6363C112.335 11.6119 112.491 11.5874 112.646 11.5628C112.62 11.3625 112.583 11.1604 112.533 10.9568C112.423 10.4972 112.253 10.0578 112.023 9.64079Z" fill="#F9F9F9"/>
<path id="Vector_2" fill-rule="evenodd" clip-rule="evenodd" d="M97.8373 8.44746C98.4171 8.42242 99.2078 8.85394 99.6157 9.43437C99.6947 9.54706 100.343 10.7514 100.19 11.8875C100.044 12.9704 99.11 13.98 98.7295 14.3295C98.1363 14.873 97.4757 15.3506 96.8089 15.8016C96.5543 15.9726 96.2838 16.1169 96.0073 16.2529C95.7788 16.3663 94.6914 16.634 94.5699 16.6431C94.5097 16.6479 94.4319 16.6788 94.3936 16.6515C94.3553 16.6244 94.3329 16.5373 94.3432 16.4838C94.5036 15.616 94.1906 14.9097 93.6333 14.2672C93.0589 13.6032 92.5271 12.8999 92.1643 12.0972C91.8385 11.3752 91.6531 10.6003 91.9613 9.82712C92.0251 9.6691 92.2889 8.7835 92.783 8.41355C93.3853 7.96148 94.2642 8.03672 94.7121 8.11093C95.0288 8.16332 95.3217 8.41555 95.5995 8.61357C95.78 8.74223 96.2644 9.16969 96.3647 9.2039C96.3768 9.18111 96.5816 9.0003 96.781 8.84148C96.9153 8.73488 97.5778 8.45786 97.8373 8.44746ZM94.2259 9.22755C94.2186 9.22755 94.2119 9.22761 94.2052 9.22773H94.204L94.2016 9.22779C94.19 9.22803 94.1785 9.22846 94.1669 9.22913L94.1621 9.22943L94.1548 9.22986C94.1529 9.23004 94.1505 9.23016 94.1481 9.23034L94.1426 9.23083C94.1396 9.23107 94.1365 9.23131 94.1335 9.23162C94.1232 9.23259 94.1128 9.23375 94.1031 9.23508C94.1007 9.23545 94.0982 9.23581 94.0958 9.23618L94.0897 9.23709C94.0849 9.23794 94.0794 9.23879 94.0745 9.2397L94.0715 9.24025L94.0666 9.24128C94.0508 9.2445 94.0356 9.24827 94.0223 9.25265L94.0168 9.25429L94.0119 9.25599C94.0059 9.2583 93.9992 9.26073 93.9937 9.26334C93.9876 9.26577 93.9828 9.26833 93.9779 9.271L93.9767 9.27161C93.9761 9.27198 93.9755 9.27234 93.9749 9.27271L93.9724 9.2738L93.9718 9.27422C93.9676 9.27665 93.9639 9.27921 93.9603 9.28188C93.9585 9.28316 93.9566 9.28437 93.9548 9.28571C93.8685 9.35433 93.7871 9.42611 93.7111 9.50111C93.7062 9.5064 93.7008 9.51175 93.6953 9.51709C93.6436 9.56979 93.5938 9.624 93.5476 9.67973C93.5409 9.688 93.5342 9.69627 93.5275 9.70453C93.5184 9.71602 93.5093 9.72757 93.5002 9.73918L93.4984 9.74179C93.485 9.75874 93.4722 9.77582 93.4601 9.79302C93.4467 9.81126 93.4333 9.82961 93.4212 9.84809C93.4078 9.86699 93.3957 9.88602 93.3835 9.90522L93.3811 9.90911L93.378 9.91294C93.364 9.93543 93.3507 9.95822 93.3373 9.98113C93.3318 9.99001 93.327 9.99888 93.3221 10.0078L93.3209 10.0096L93.3173 10.0164L93.3136 10.0226C93.3069 10.0351 93.3002 10.0477 93.2935 10.0603C93.2832 10.0798 93.2735 10.0993 93.2638 10.1191C93.2619 10.1231 93.2601 10.1271 93.2583 10.1311L93.2571 10.1339L93.2546 10.1392C93.2516 10.1446 93.2492 10.15 93.2467 10.1555C93.1987 10.2609 93.1598 10.3705 93.13 10.4847C93.1246 10.507 93.1191 10.5295 93.1136 10.5523C93.096 10.6327 93.0826 10.7153 93.0747 10.7999C93.0735 10.8084 93.0729 10.8168 93.0723 10.8253C93.0693 10.8589 93.0675 10.8928 93.0662 10.9271L93.0656 10.9355C93.065 10.9517 93.065 10.968 93.0644 10.9844C93.0644 11.0071 93.0644 11.0297 93.0644 11.0526L93.065 11.0543C93.065 11.0623 93.065 11.0702 93.065 11.0781C93.0656 11.0905 93.0662 11.1027 93.0668 11.1149V11.1177L93.0675 11.1303C93.0681 11.1345 93.0681 11.1386 93.0687 11.1428L93.0693 11.151C93.0717 11.1849 93.0747 11.2183 93.079 11.2513C93.0802 11.2574 93.0808 11.2635 93.082 11.2696C93.0839 11.2819 93.0857 11.2941 93.0875 11.3062C93.0905 11.3245 93.0942 11.3426 93.0978 11.3607C93.107 11.4034 93.1173 11.4452 93.13 11.486C93.1313 11.4899 93.1325 11.4939 93.1337 11.4978L93.1355 11.5034C93.1398 11.5158 93.144 11.5282 93.1483 11.5405C93.1489 11.5428 93.1501 11.5452 93.1507 11.5475L93.1531 11.5529C93.1556 11.5602 93.158 11.5674 93.161 11.5747C93.1744 11.6096 93.1896 11.6437 93.206 11.677L93.2078 11.6802C93.2085 11.6819 93.2097 11.6836 93.2103 11.6853L93.2121 11.6887C93.2352 11.7343 93.2613 11.7784 93.2905 11.8209C93.2954 11.8282 93.3008 11.8356 93.3057 11.8429C93.3081 11.846 93.3106 11.8493 93.313 11.8524L93.316 11.8571C93.3233 11.8668 93.3306 11.8764 93.3379 11.8859C93.3452 11.8947 93.3519 11.9035 93.3592 11.9122C93.3677 11.9223 93.3762 11.9324 93.3853 11.9424L93.3859 11.9433L93.3877 11.9452C93.3926 11.9505 93.3975 11.9559 93.4023 11.9612C93.4139 11.9739 93.426 11.9864 93.4382 11.9987C93.4461 12.0063 93.454 12.0138 93.4619 12.0212C93.4716 12.0304 93.4814 12.0396 93.4917 12.0486C93.4935 12.0501 93.4953 12.0517 93.4965 12.0532C93.5683 12.1162 93.6491 12.1736 93.7397 12.2252C93.7494 12.2307 93.7591 12.2361 93.7688 12.2415L93.7749 12.2447L93.781 12.2479C93.7968 12.2562 93.8126 12.2644 93.829 12.2725C93.8357 12.2759 93.843 12.2793 93.8503 12.2827C93.8539 12.2845 93.8576 12.2862 93.8612 12.2879L93.8618 12.2827C93.8715 12.2096 93.8703 12.1394 93.857 12.0729L93.8564 12.0718L93.8557 12.0689C93.8539 12.0595 93.8515 12.0501 93.8491 12.0408V12.0394L93.8478 12.0368C93.846 12.0298 93.8442 12.023 93.8418 12.0161C93.8399 12.0091 93.8375 12.0021 93.8351 11.9951C93.8332 11.9904 93.8314 11.9857 93.8296 11.981C93.8278 11.977 93.8266 11.973 93.8247 11.969L93.8199 11.9571C93.7798 11.8585 93.7318 11.7617 93.6856 11.6647C93.6795 11.652 93.6734 11.6393 93.6673 11.6266L93.6625 11.6157C93.6606 11.6117 93.6588 11.6079 93.657 11.6039L93.6546 11.5989C93.6485 11.5854 93.6424 11.5719 93.6363 11.5584C93.6084 11.4969 93.5828 11.4351 93.5616 11.3723C93.5549 11.352 93.5488 11.3317 93.5427 11.3111C93.5342 11.2812 93.5269 11.251 93.5215 11.2205L93.519 11.2093L93.5178 11.2005C93.5154 11.1887 93.513 11.1768 93.5111 11.1651L93.5093 11.1541C93.5057 11.132 93.5026 11.11 93.5002 11.0882L93.4984 11.0773L93.4978 11.0728C93.4905 11.0105 93.4868 10.9488 93.4868 10.8883C93.4862 10.8179 93.4917 10.7489 93.5026 10.6816C93.5032 10.6762 93.5044 10.6709 93.5051 10.6656C93.5087 10.6452 93.513 10.625 93.5178 10.6048L93.5202 10.5964C93.5209 10.5932 93.5215 10.5899 93.5227 10.5866L93.5251 10.5768C93.5257 10.5751 93.5257 10.5735 93.5263 10.5718L93.5275 10.5688C93.5403 10.522 93.5567 10.4762 93.5762 10.4316C93.5798 10.424 93.5835 10.4165 93.5865 10.409C93.5926 10.3969 93.5987 10.3848 93.6047 10.3728L93.6059 10.3704C93.6096 10.3637 93.6132 10.3571 93.6169 10.3505C93.6224 10.3412 93.6278 10.3319 93.6333 10.3228L93.6363 10.3183L93.6375 10.3161C93.643 10.307 93.6491 10.298 93.6552 10.289C93.6631 10.2768 93.6716 10.2647 93.6801 10.2528C93.685 10.2467 93.6892 10.2407 93.6941 10.2347C93.7056 10.2194 93.7184 10.2043 93.7311 10.1895C93.733 10.1874 93.7348 10.1853 93.7366 10.1832L93.739 10.1802L93.7427 10.1763C93.7518 10.1661 93.7615 10.1559 93.7713 10.1458L93.7737 10.1433C93.8187 10.0972 93.8691 10.0532 93.9268 10.0115C93.9287 10.0102 93.9299 10.009 93.9317 10.0078L93.9372 10.0041C93.9402 10.0017 93.9439 9.99925 93.9475 9.99681C93.9518 9.99384 93.9554 9.99086 93.9603 9.98788L93.9724 9.97888C94.2344 9.79272 94.4751 9.57331 94.7407 9.35865L94.7394 9.35767C94.7382 9.35688 94.7376 9.35615 94.7364 9.35536L94.7352 9.35415L94.7334 9.35263L94.7315 9.35117C94.7309 9.35068 94.7303 9.3502 94.7297 9.34971L94.7261 9.34704C94.7072 9.33281 94.6841 9.31969 94.6574 9.30771L94.655 9.30668L94.6513 9.30504C94.6471 9.30315 94.6428 9.30133 94.638 9.29951L94.6325 9.2972C94.627 9.29507 94.6215 9.29294 94.6161 9.29088L94.6142 9.29045L94.6094 9.28875C94.6045 9.28681 94.5991 9.28492 94.593 9.2831C94.576 9.27744 94.5583 9.27222 94.5395 9.26736C94.5304 9.26493 94.5206 9.26262 94.5115 9.26043C94.5079 9.25964 94.5049 9.25885 94.5012 9.25812L94.4939 9.25654L94.4866 9.25502C94.4556 9.24845 94.4234 9.24298 94.3906 9.23873L94.3857 9.23812C94.3541 9.23405 94.3219 9.23113 94.2903 9.22943C94.2775 9.2287 94.2648 9.22822 94.252 9.22791L94.2478 9.22779L94.2405 9.22767C94.238 9.22767 94.2356 9.22761 94.2332 9.22761L94.2259 9.22755Z" fill="#F9F9F9"/>
<path id="Vector_3" fill-rule="evenodd" clip-rule="evenodd" d="M147.534 6.82438C147.489 6.36149 147.461 5.88663 147.335 5.4432C147.074 4.51457 146.688 3.63256 146.115 2.84622C145.698 2.27241 145.209 1.76972 144.617 1.37186C143.968 0.936512 143.264 0.659483 142.499 0.479945C141.785 0.312805 141.084 0.279864 140.376 0.387988C139.326 0.54753 138.424 1.0766 137.598 1.69654C136.703 2.36911 135.855 3.11339 135.213 4.05016C134.576 4.97776 133.918 5.89447 133.342 6.8606C132.901 7.60185 132.532 8.39451 132.205 9.19472C131.734 10.3424 131.312 11.5116 130.905 12.6837C130.65 13.4178 130.454 14.1737 130.24 14.9218C130.098 15.4194 129.946 15.9165 129.843 16.4222C129.58 17.7062 129.332 18.9929 129.095 20.2808C128.916 21.2618 128.724 22.2427 128.606 23.2322C128.413 24.8568 128.243 26.4856 128.122 28.1169C127.963 30.2229 127.837 32.3337 127.955 34.4457C127.989 35.076 127.734 35.4862 127.302 35.8576C127.245 35.9062 127.184 35.953 127.131 36.0065C126.243 36.923 125.193 37.6335 124.109 38.2832C123.113 38.8801 122.04 39.331 120.909 39.6179C120.001 39.8483 119.086 40.0063 118.145 39.7863C117.394 39.6112 116.925 39.1888 116.75 38.4115C116.675 38.0778 116.761 37.8888 117.013 37.7198C117.084 37.673 117.154 37.6232 117.224 37.5758C117.6 37.326 117.994 37.0975 118.348 36.8209C119.15 36.1973 119.93 35.5476 120.722 34.9131C121.811 34.0428 122.741 33.0162 123.651 31.9696C124.433 31.0725 125.099 30.0904 125.701 29.065C126.266 28.1035 126.738 27.0983 127.081 26.0365C127.266 25.4639 127.451 24.8853 127.56 24.2952C127.687 23.6114 127.769 22.9143 127.804 22.2202C127.849 21.3414 127.705 20.4777 127.486 19.6232C127.198 18.4964 126.728 17.471 125.926 16.6145C124.952 15.5749 123.683 15.2234 122.329 15.172C121.237 15.131 120.157 15.291 119.136 15.7375C118.214 16.1409 117.349 16.6335 116.6 17.3069C116.048 17.8023 115.483 18.2903 114.986 18.8385C114.316 19.5746 113.655 20.33 113.083 21.1414C112.406 22.1041 111.837 23.1398 111.417 24.2472C111.19 24.8458 110.908 25.4263 110.725 26.0371C110.363 27.2551 110.045 28.4834 109.851 29.747C109.676 30.8957 109.58 32.045 109.563 33.2034C109.542 34.6694 109.685 36.1207 110.01 37.5545C110.031 37.6451 110.027 37.7763 109.976 37.8432C109.839 38.0213 109.685 38.1927 109.513 38.3349C108.808 38.9171 108.029 39.3456 107.136 39.5869C106.316 39.8106 105.314 39.3657 104.959 38.5829C104.621 37.8383 104.685 37.0494 104.725 36.2836C104.774 35.3568 104.935 34.4336 105.082 33.5146C105.2 32.7707 105.342 32.0267 105.526 31.2968C105.828 30.1043 106.168 28.9222 106.499 27.7383C106.716 26.9591 106.945 26.1842 107.173 25.4074C107.323 24.8926 107.483 24.3809 107.63 23.8667C107.764 23.4054 107.883 22.9404 108.015 22.4791C108.181 21.8932 108.34 21.3049 108.529 20.7251C108.629 20.4206 108.573 20.028 108.989 19.8803C109.527 19.6864 110.056 19.4658 110.593 19.2682C111.174 19.0531 111.76 18.8452 112.347 18.6447C113.006 18.4204 113.664 18.1913 114.331 17.9943C114.891 17.8296 115.438 17.6163 115.851 17.2194C116.711 16.3942 117.22 15.4131 116.974 14.1567C116.859 13.567 116.403 13.0795 115.99 13.0501C115.621 13.0237 115.242 13.0501 114.873 13.1012C113.913 13.234 112.957 13.3953 111.998 13.5406C111.328 13.6429 110.655 13.7394 109.984 13.8341C109.817 13.8587 109.692 13.8242 109.748 13.6082C109.894 13.0511 110.009 12.4836 110.192 11.9391C110.396 11.3331 110.382 10.7278 110.24 10.1312C110.057 9.37249 109.623 8.74599 109.05 8.22306C108.259 7.50004 107.324 7.047 106.278 6.84036C105.834 6.75199 105.377 6.71224 104.934 6.94496C104.391 7.23037 104.245 7.74923 104.11 8.26688C103.929 8.95847 103.795 9.66222 103.632 10.3592C103.371 11.4863 103.103 12.611 102.834 13.7367C102.726 14.2016 102.628 14.6706 102.487 15.1266C102.447 15.2599 102.297 15.4077 102.163 15.4567C101.6 15.6643 101.02 15.8329 100.451 16.0254C99.654 16.2944 99.0772 16.8097 98.8219 17.6187C98.656 18.1451 98.5472 18.6915 98.439 19.2336C98.2755 20.0565 98.1333 20.8825 97.9886 21.7085C97.8112 22.7222 98.5241 23.4753 99.5172 23.358C99.8497 23.3191 100.175 23.2139 100.504 23.138C100.724 23.0869 100.799 23.1483 100.753 23.3568C100.549 24.2867 100.348 25.2184 100.132 26.1459C99.9682 26.8497 99.7877 27.5504 99.6047 28.2494C99.2887 29.4619 98.9903 30.6799 98.6384 31.8821C98.3497 32.8673 98.0634 33.861 97.6519 34.7964C97.1997 35.8284 96.6382 36.8161 96.0614 37.7867C95.7921 38.2395 95.3898 38.6175 95.0251 39.0083C94.875 39.1688 94.7243 39.1122 94.703 38.8764C94.6483 38.2534 94.5407 37.6256 94.5626 37.0045C94.6051 35.8552 94.6246 34.7034 94.8282 33.5632C94.9607 32.8156 95.0087 32.0535 95.1509 31.3077C95.374 30.1396 95.6365 28.9787 95.8979 27.8185C96.0614 27.0934 96.2474 26.3732 96.4345 25.6542C96.722 24.5517 97.0247 23.454 97.3085 22.3509C97.4283 21.8914 97.6082 21.421 97.596 20.9597C97.5687 19.9076 96.9834 19.1376 96.1459 18.5438C95.3235 17.9615 94.4271 17.5452 93.4522 17.2844C92.6274 17.065 92.0105 17.3428 91.5662 18.0618C91.232 18.6027 91.1536 19.2129 90.9639 19.7891C90.595 20.9171 90.3057 22.0695 89.9489 23.2006C89.7964 23.6862 89.4512 24.0612 89.0318 24.3535C88.875 24.4623 88.7638 24.4398 88.7182 24.2125C88.6258 23.7543 88.4945 23.3045 88.4034 22.8462C88.269 22.1746 87.9293 21.6009 87.5567 21.0472C87.0632 20.313 86.391 19.7514 85.593 19.3971C85.1432 19.1977 84.6102 19.0975 84.1167 19.1035C83.419 19.1108 82.7218 19.2688 82.097 19.622C81.657 19.8718 81.1945 20.0997 80.8091 20.4194C79.8561 21.2083 79.2879 22.2439 79.0192 23.4498C78.7463 24.6781 78.8843 25.8414 79.5462 26.9238C79.9771 27.6301 80.5119 28.2385 81.2151 28.6919C81.3221 28.7611 81.4534 28.9003 81.454 29.0073C81.4583 29.6376 81.4601 30.2715 81.4017 30.8981C81.313 31.862 81.1799 32.8235 81.0571 33.785C80.8304 35.5579 80.5168 37.3108 79.9984 39.029C79.6598 40.1485 79.3031 41.2565 78.7786 42.2994C78.5439 42.765 78.2176 43.1856 77.9094 43.6092C77.7684 43.8037 77.5502 43.8784 77.3515 43.6724C77.1467 43.4591 76.8908 43.253 76.7899 42.9917C76.5887 42.4726 76.4787 41.9178 76.3322 41.3774C76.1973 40.8809 76.3693 40.3345 76.0897 39.8592C76.0739 39.8343 76.128 39.768 76.1505 39.7225C76.1785 39.6641 76.2289 39.6045 76.2277 39.5468C76.2174 38.8843 76.2113 38.2285 76.2903 37.5642C76.3456 37.1102 76.3207 36.6422 76.4021 36.1815C76.5073 35.5896 76.5681 34.9903 76.6483 34.394C76.7395 33.72 76.8337 33.046 76.9218 32.372C76.9814 31.9258 77.0269 31.4785 77.0926 31.033C77.1898 30.3554 77.3089 29.6807 77.4025 29.0024C77.5873 27.6708 77.7581 26.3361 77.9392 25.0032C78.0711 24.0253 77.7788 23.1611 77.2245 22.3776C76.565 21.4447 75.6266 20.9542 74.5211 20.7512C74.0968 20.6734 73.6787 20.578 73.2551 20.502C72.3744 20.344 71.4895 20.7998 71.2798 21.7145C71.1947 22.0883 71.1418 22.4706 71.1023 22.8523C70.9686 24.1469 70.8452 25.4427 70.7237 26.7391C70.6586 27.421 70.6136 28.106 70.5438 28.7885C70.4459 29.7318 70.3298 30.6726 70.2301 31.6153C70.1523 32.3531 70.0891 33.0916 70.0186 33.83C69.9439 34.6171 69.8661 35.4042 69.7919 36.19C69.7567 36.5839 69.7384 36.9789 69.6916 37.3703C69.6363 37.845 69.5622 38.3185 69.4917 38.7901C69.2978 40.0944 69.0535 41.3853 68.4743 42.5851C68.3758 42.7875 68.2834 42.9941 68.1625 43.1831C68.0853 43.3047 67.9485 43.3776 67.8622 43.1862C67.785 43.016 67.7024 42.8325 67.6914 42.6507C67.6167 41.5196 67.5164 40.3874 67.5164 39.2557C67.5164 38.2717 67.6294 37.2871 67.7097 36.3037C67.7887 35.3531 67.8829 34.4001 67.985 33.4496C68.0452 32.8898 68.1236 32.3306 68.216 31.7751C68.2992 31.278 68.4165 30.7863 68.5138 30.2921C68.6973 29.3641 68.8669 28.4317 69.065 27.5067C69.2109 26.8272 69.3951 26.1556 69.5579 25.4785C69.6455 25.1139 69.5689 24.7735 69.3853 24.4508C69.0018 23.7792 68.3491 23.4814 67.6574 23.3258C66.8946 23.1526 66.107 23.0517 65.326 23.0085C64.8075 22.9799 64.2636 23.059 63.8928 23.5257C63.7421 23.7166 63.5956 23.9135 63.4279 24.0885C63.3647 24.1542 63.2316 24.2162 63.1538 24.1943C62.1661 23.9202 61.173 24.0132 60.223 24.2867C59.1898 24.5827 58.2344 25.1078 57.4048 25.7934C56.6991 26.375 56.0178 27.0095 55.4313 27.7085C54.6965 28.5867 54.0425 29.5367 53.4038 30.4878C52.7413 31.4767 52.2897 32.5798 51.8454 33.6781C51.6467 34.1728 51.499 34.6888 51.3482 35.2012C51.1416 35.9038 50.9228 36.6045 50.7678 37.3187C50.6031 38.079 50.4931 38.8521 50.3831 39.624C50.264 40.4536 50.1631 41.2881 50.0701 42.1214C49.9655 43.0555 49.8975 43.9945 49.7771 44.9269C49.7121 45.4277 49.6021 45.9279 49.4532 46.4117C49.3079 46.8851 49.1542 47.3726 48.7646 47.7227C48.7014 47.7792 48.6011 47.8254 48.5221 47.8193C48.482 47.8162 48.4273 47.6874 48.4212 47.6132C48.378 47.0918 48.316 46.5703 48.3148 46.0488C48.313 45.0308 48.3021 44.0091 48.378 42.9959C48.499 41.3823 48.6789 39.7735 48.8515 38.1635C48.9566 37.1698 49.0849 36.1797 49.2228 35.1902C49.2988 34.6414 49.4422 34.0999 49.5055 33.5498C49.5778 32.9171 49.7322 32.3112 49.9485 31.7143C50.1558 31.1455 50.3387 30.5735 50.1072 29.9536C49.8221 29.1878 49.2289 28.7241 48.5537 28.3564C47.58 27.8282 46.5395 27.686 45.4364 27.8258C44.7131 27.9182 44.3023 28.3485 44.0433 28.9465C43.8701 29.3452 43.7638 29.7859 43.7042 30.2186C43.5365 31.4676 43.4046 32.7226 43.2636 33.9759C43.1025 35.4072 42.9591 36.8416 42.7834 38.2711C42.6734 39.159 42.5415 40.0458 42.3762 40.9252C42.2425 41.6345 42.0577 42.3347 41.8711 43.033C41.6754 43.7684 41.4572 44.4972 41.2348 45.2253C41.0901 45.7018 40.9394 46.1771 40.7595 46.6408C40.5474 47.1921 40.3213 47.7397 40.066 48.2715C39.6807 49.0731 39.2711 49.8632 38.8547 50.6509C38.8043 50.7464 38.6396 50.8479 38.5442 50.8345C38.4615 50.8223 38.3551 50.657 38.3399 50.5476C38.2731 50.0644 38.1935 49.5758 38.1941 49.0896C38.1959 48.0916 38.233 47.0936 38.2786 46.0962C38.3059 45.5055 38.3801 44.9171 38.4262 44.3282C38.5022 43.3527 38.5733 42.3772 38.6463 41.4036C38.6906 40.8104 38.7374 40.2184 38.78 39.6264C38.8249 38.9961 38.8596 38.3671 38.9119 37.738C38.9708 37.0148 39.0395 36.2909 39.1149 35.5689C39.1544 35.1963 39.223 34.8268 39.2686 34.4554C39.3245 33.9923 39.4346 33.5231 39.4054 33.0648C39.3446 32.1191 38.0798 31.1917 37.3061 31.0725C36.0322 30.8768 34.7705 30.9206 33.6226 31.6305C33.2258 31.8754 32.8894 32.1896 32.8178 32.6667C32.7147 33.3541 32.6537 34.0476 32.5916 34.7405C32.5147 35.5926 32.4557 36.4459 32.3895 37.3004C32.3298 38.0711 32.2617 38.8412 32.2148 39.6137C32.174 40.2804 32.1586 40.9489 32.131 41.6175C32.0905 42.596 32.0355 43.5746 32.0117 44.5537C31.9831 45.6921 31.9687 46.831 31.9732 47.97C31.9783 49.298 32.0069 50.6248 32.0325 51.9516C32.0489 52.8158 32.108 53.671 32.3597 54.5103C32.6 55.3108 33.0067 55.9751 33.7168 56.4248C34.7336 57.0703 35.8043 56.9427 36.8296 56.5081C37.7929 56.0997 38.6317 55.4749 39.3185 54.6635C40.1098 53.7293 40.8154 52.7344 41.439 51.6805C41.6852 51.2654 41.9228 50.8472 42.1769 50.4382C42.217 50.3701 42.3191 50.3258 42.4011 50.3075C42.4285 50.3021 42.4959 50.4072 42.5196 50.4722C42.6862 50.9196 42.8083 51.3863 43.0144 51.8136C43.2982 52.4026 43.765 52.8323 44.3284 53.1781C44.8511 53.499 45.3999 53.6625 46.0034 53.6418C46.7838 53.6175 47.4554 53.2966 48.0061 52.766C48.6011 52.1929 49.1937 51.607 49.7054 50.9615C50.2208 50.3075 50.6347 49.5727 51.0978 48.8756C51.2291 48.6781 51.3531 48.6969 51.4759 48.8987C51.6698 49.2184 51.863 49.5405 52.0806 49.8432C52.6082 50.578 53.3132 51.0411 54.2145 51.1882C55.0581 51.325 55.8428 51.0837 56.597 50.7676C57.4801 50.3963 58.1566 49.7277 58.7747 49.0178C59.1819 48.5504 59.5466 48.0417 59.89 47.5257C60.2808 46.9411 60.6442 46.3375 60.9852 45.7231C61.2854 45.1833 61.5401 44.6169 61.8081 44.059C61.8902 43.8876 61.9504 43.7064 62.0202 43.5302C62.0555 43.5308 62.0895 43.532 62.1242 43.5332C62.1582 43.7362 62.2087 43.938 62.2245 44.1428C62.3211 45.4319 62.6195 46.6657 63.282 47.7865C63.6145 48.3481 64.1013 48.7832 64.7388 48.9631C65.3563 49.137 66.0049 49.0658 66.6078 48.8878C67.3493 48.6677 68.0391 48.2994 68.5776 47.7263C68.941 47.3397 69.2613 46.9113 69.5841 46.4882C70.0089 45.9333 70.3067 45.3086 70.5614 44.66C70.6611 44.4072 70.8069 44.1726 70.954 43.8888C71.1436 44.1477 71.2956 44.3373 71.4281 44.5391C72.1975 45.7103 73.269 46.501 74.5709 46.9799C75.4637 47.3075 76.3912 47.3434 77.3247 47.1805C78.2139 47.0237 79.0934 46.8268 79.8859 46.3673C80.2287 46.1692 80.6019 45.9996 80.8888 45.7383C81.4929 45.1882 82.1043 44.6303 82.6106 43.9933C83.27 43.1613 83.9034 42.2903 84.4127 41.3635C84.9281 40.4232 85.3012 39.4028 85.6945 38.4005C85.9965 37.6335 86.2549 36.8477 86.4937 36.0594C86.7259 35.2966 86.9131 34.5199 87.11 33.7468C87.3233 32.9129 87.544 32.0796 87.7245 31.2385C87.8886 30.4696 87.9998 29.6898 88.1475 28.9173C88.1621 28.8347 88.2593 28.7174 88.3335 28.704C88.6197 28.6548 88.9133 28.6305 89.2044 28.6183C89.391 28.611 89.4718 28.6967 89.4123 28.907C89.2786 29.3786 89.1424 29.8515 89.0506 30.3316C88.72 32.0626 88.3754 33.7911 88.0976 35.5312C87.9038 36.7492 87.7859 37.9769 87.8248 39.2222C87.8582 40.2853 88.1128 41.2808 88.5097 42.2514C88.7747 42.8963 89.0798 43.529 89.5654 44.0346C89.8681 44.3513 90.2224 44.6449 90.6084 44.8454C90.9348 45.0156 91.3377 45.0442 91.7097 45.1244C92.3582 45.2642 93.0012 45.1633 93.5993 44.939C94.5109 44.5974 95.2889 44.0073 95.9544 43.315C96.8801 42.3499 97.7006 41.2936 98.3497 40.1151C98.3952 40.033 98.4901 39.9789 98.563 39.9115C98.6134 39.985 98.69 40.0507 98.7125 40.1315C98.9258 40.8821 99.2316 41.5889 99.719 42.2022C99.9761 42.5261 100.228 42.8695 100.546 43.1248C101.526 43.9161 102.67 44.3142 103.927 44.3452C104.807 44.3677 105.673 44.2383 106.516 43.9702C107.623 43.6171 108.678 43.1601 109.644 42.5037C110.288 42.0654 110.96 41.6661 111.579 41.1951C111.858 40.9818 111.944 41.0893 112.105 41.2893C112.395 41.6449 112.693 41.998 113.015 42.3256C113.819 43.1418 114.781 43.6706 115.909 43.9246C117.053 44.1829 118.186 44.1088 119.295 43.8195C120.267 43.5654 121.213 43.2093 122.161 42.8762C122.648 42.7054 123.132 42.5128 123.593 42.2806C124.188 41.981 124.756 41.6278 125.34 41.3045C126.292 40.777 127.181 40.1576 128.018 39.4629C128.225 39.2903 128.332 39.3183 128.434 39.5662C128.815 40.4998 129.274 41.3744 129.99 42.1159C130.968 43.1309 132.16 43.7089 133.516 43.9423C135.101 44.2152 136.623 43.9204 138.03 43.1588C139.119 42.5687 140.113 41.8308 141.004 40.9641C141.869 40.1211 142.701 39.2423 143.334 38.2079C143.957 37.1917 144.579 36.1669 145.105 35.0985C145.604 34.0871 145.999 33.0229 146.396 31.9654C146.623 31.3594 146.689 30.7146 146.494 30.0752C146.326 29.5276 145.931 29.2224 145.364 29.2352C144.782 29.2474 144.365 29.5999 144.075 30.0509C143.718 30.6082 143.455 31.2257 143.122 31.7994C142.5 32.874 141.926 33.9765 141.135 34.9496C140.554 35.6631 139.964 36.3554 139.232 36.9182C138.363 37.5849 137.451 38.1106 136.29 38.0274C135.543 37.9745 135.062 37.5515 134.683 36.9735C134.393 36.5304 134.201 36.035 134.124 35.5099C134.056 35.0474 133.894 34.577 134.293 34.1479C134.761 33.6441 135.196 33.1098 135.625 32.5725C136.572 31.3855 137.531 30.2077 138.439 28.9927C139.267 27.8835 140.045 26.7372 140.824 25.5934C141.304 24.8866 141.757 24.159 142.2 23.4273C142.654 22.6803 143.088 21.92 143.522 21.1603C143.834 20.6133 144.146 20.065 144.43 19.5034C144.714 18.9425 144.969 18.3681 145.225 17.7925C145.417 17.3549 145.6 16.9123 145.769 16.4653C146.128 15.5162 146.502 14.5711 146.815 13.6062C147.024 12.9637 147.159 12.2944 147.289 11.6297C147.505 10.5174 147.653 9.39455 147.619 8.25697C147.605 7.77938 147.581 7.29996 147.534 6.82438ZM36.7925 39.5754C36.7798 39.5748 36.7676 39.5741 36.7555 39.5729C36.7555 39.3936 36.7731 39.2113 36.747 39.0357C36.7354 38.9579 36.6491 38.8497 36.5749 38.8272C36.4333 38.7859 36.1191 39.0897 36.1045 39.2423C36.0638 39.6805 36.0152 40.1169 35.9757 40.5545C35.8985 41.406 35.8237 42.2569 35.752 43.1084C35.6985 43.7453 35.628 44.3817 35.6098 45.0192C35.5879 45.8428 35.6049 46.6669 35.6226 47.4917C35.6244 47.5604 35.7624 47.6844 35.8347 47.6825C35.9757 47.6789 36.1829 47.719 36.2127 47.4838C36.2316 47.3373 36.2322 47.1878 36.2437 47.0401C36.3519 45.6793 36.4668 44.3185 36.567 42.9571C36.6503 41.8308 36.7178 40.7022 36.7925 39.5754ZM46.9418 36.4933C46.9291 36.3499 46.9376 36.232 46.9048 36.1274C46.8762 36.0417 46.785 35.8989 46.7492 35.9074C46.6349 35.9317 46.4647 35.9943 46.4374 36.0788C46.3201 36.4532 46.2241 36.8361 46.1609 37.2245C46.077 37.7393 46.0271 38.262 45.97 38.7816C45.8837 39.562 45.7986 40.3436 45.722 41.1252C45.6813 41.5476 45.6448 41.9712 45.6339 42.3936C45.6151 43.1303 45.6169 43.8657 45.6108 44.6023C45.6084 44.8284 45.7184 44.9864 45.9299 45.0496C46.0186 45.077 46.1578 45.0819 46.2137 45.0308C46.2703 44.9785 46.2605 44.8454 46.263 44.7482C46.2678 44.6108 46.2405 44.4722 46.2544 44.3367C46.2781 44.1021 46.3347 43.8712 46.3553 43.6372C46.4222 42.9072 46.4763 42.1761 46.5395 41.4461C46.6149 40.5727 46.7006 39.7018 46.768 38.8272C46.7954 38.4856 46.7717 38.1398 46.7978 37.7976C46.8324 37.3509 46.895 36.906 46.9418 36.4933ZM62.6147 28.1351C62.5454 28.9222 62.4992 29.7099 62.4068 30.4939C62.3175 31.2597 62.2099 32.0267 62.0598 32.7828C61.827 33.9601 61.5668 35.1337 61.2854 36.3025C61.1469 36.875 60.9524 37.4372 60.7524 37.9933C60.3969 38.9803 60.0474 39.9704 59.6371 40.9356C59.295 41.7451 58.8871 42.5286 58.4775 43.3071C58.221 43.7946 57.9104 44.2547 57.6138 44.7202C57.564 44.7986 57.4631 44.8916 57.3871 44.8904C57.3245 44.8886 57.2224 44.7658 57.2091 44.6838C57.0468 43.7575 56.8809 42.8312 56.7538 41.8989C56.7034 41.53 56.676 41.1422 56.676 40.7672C56.6536 40.7648 56.6991 40.7684 56.676 40.7672C56.7751 39.644 56.8395 38.5148 56.986 37.3977C57.082 36.6738 57.2917 35.9639 57.4631 35.2498C57.6327 34.5387 57.7974 33.8252 58.0016 33.1238C58.1797 32.5099 58.3955 31.9076 58.6167 31.3083C58.9455 30.4161 59.3436 29.55 59.9204 28.7909C60.4011 28.1582 60.9937 27.6386 61.782 27.3894C62.3096 27.2229 62.6669 27.5353 62.6147 28.1351ZM54.1276 41.8321C54.6479 41.5154 54.6503 41.5154 54.7245 40.9483C54.7421 40.8073 54.747 40.6651 54.7524 40.5235C54.7822 39.7158 54.7737 38.9038 54.8509 38.1003C54.9396 37.1728 55.091 36.2508 55.2399 35.3306C55.362 34.5806 55.5231 33.8361 55.6611 33.0879C55.6993 32.8843 55.5468 32.7676 55.3474 32.8162C54.9512 32.9111 54.8801 33.2928 54.7877 33.5675C54.5318 34.3217 54.3318 35.0991 54.175 35.8819C53.9891 36.8142 53.8268 37.7551 53.7374 38.7008C53.6694 39.4192 53.7131 40.1491 53.7423 40.8736C53.7551 41.2182 53.8353 41.5658 54.1276 41.8321ZM116.509 40.6803C116.561 40.642 116.703 40.5849 116.756 40.4822C116.831 40.3333 116.747 40.2318 116.587 40.1297C116.2 39.8817 115.811 39.6191 115.482 39.3006C115.062 38.894 115.096 38.877 114.665 39.1979C114.537 39.294 114.548 39.356 114.605 39.4727C114.977 40.2281 115.592 40.6062 116.509 40.6803ZM66.3142 30.2107C66.2929 30.1554 66.2443 30.0326 66.1927 29.9117C66.1611 29.8375 66.1076 29.699 66.0905 29.7026C65.9635 29.7324 65.763 29.7628 65.7338 29.8442C65.5423 30.3942 65.3235 30.9467 65.2354 31.5174C65.0592 32.6661 64.957 33.8264 64.8312 34.9824C64.7583 35.6534 64.672 36.3231 64.6392 36.9947C64.6076 37.642 64.6732 38.2954 64.627 38.9421C64.6015 39.3025 64.7668 39.5432 64.937 39.8045C64.9589 39.8379 65.0361 39.8556 65.0816 39.8489C65.2707 39.8154 65.4718 39.5298 65.4621 39.3244C65.4542 39.156 65.4311 38.9852 65.4457 38.8181C65.4882 38.3057 65.5423 37.794 65.5964 37.2816C65.6171 37.0853 65.6578 36.8914 65.6688 36.6945C65.6876 36.3693 65.6724 36.0417 65.6985 35.7172C65.7678 34.8906 65.8535 34.0671 65.9289 33.2417C65.9702 32.7859 65.9872 32.327 66.0444 31.8736C66.1136 31.343 66.2151 30.8179 66.3142 30.2107ZM134.84 39.5346C134.982 39.5152 135.149 39.5286 135.276 39.4629C135.385 39.4082 135.473 39.2745 135.52 39.1548C135.539 39.1068 135.442 38.9688 135.37 38.9348C134.821 38.6795 134.298 38.3896 133.869 37.9538C133.658 37.7393 133.452 37.5205 133.236 37.3132C133.056 37.14 132.964 37.1643 132.859 37.3928C132.832 37.453 132.817 37.5247 132.775 37.5709C132.664 37.6931 132.558 37.7818 132.69 37.9787C132.775 38.1039 132.705 38.3428 132.796 38.4534C133.324 39.0843 133.989 39.4836 134.84 39.5346ZM75.1872 29.2176C75.1568 29.0316 74.8596 28.8055 74.6596 28.8645C74.5508 28.8967 74.3904 28.9641 74.3673 29.0474C74.2318 29.533 74.1084 30.0235 74.0227 30.5201C73.8385 31.6043 73.6574 32.691 73.514 33.7808C73.3693 34.8833 73.2636 35.9919 73.1609 37.0993C73.1299 37.4281 73.1572 37.7648 73.1791 38.0966C73.204 38.4613 73.2502 38.826 73.2988 39.1888C73.3079 39.2642 73.3493 39.3584 73.407 39.3973C73.5079 39.4641 73.9412 39.2739 73.971 39.1487C74.0391 38.8685 74.1072 38.5859 74.143 38.2996C74.1764 38.0225 74.154 37.7381 74.1831 37.4591C74.3211 36.1657 74.4566 34.873 74.6153 33.5814C74.7946 32.1258 74.9963 30.6726 75.1872 29.2176ZM101.734 32.8539C101.63 33.4939 101.502 34.1351 101.469 34.7806C101.427 35.6327 101.436 36.4921 101.486 37.3448C101.508 37.7295 101.668 38.1094 101.794 38.482C101.813 38.5403 101.981 38.5482 102.08 38.5774C102.157 38.327 102.287 38.0772 102.3 37.8225C102.322 37.3169 102.24 36.8027 102.272 36.2964C102.323 35.4637 102.411 34.6317 102.518 33.8039C102.615 33.0478 102.746 32.2966 102.887 31.546C103.037 30.7504 103.218 29.9609 103.385 29.1677C103.536 28.4433 103.679 27.7158 103.842 26.9925C103.887 26.7919 103.82 26.702 103.64 26.6704C103.398 26.6278 103.274 26.753 103.208 26.9749C103.069 27.4392 102.907 27.8975 102.777 28.3643C102.591 29.0353 102.433 29.7135 102.25 30.3851C102.183 30.6295 101.81 32.3793 101.734 32.8539ZM85.497 31.0652C85.4313 30.9959 85.3493 30.841 85.2739 30.8434C85.1487 30.8489 84.9579 30.9248 84.9153 31.0239C84.7141 31.4949 84.5409 31.9781 84.3805 32.465C84.2784 32.7786 84.2316 33.1086 84.1355 33.424C83.955 34.0184 83.7453 34.6049 83.5673 35.1994C83.3308 35.9876 83.109 36.779 82.8884 37.5727C82.8677 37.6451 82.8659 37.7739 82.9066 37.8025C82.9704 37.845 83.1041 37.8602 83.16 37.8201C83.3004 37.7168 83.4348 37.5916 83.5338 37.4487C84.1404 36.5833 84.3166 35.5421 84.6698 34.5739C84.8606 34.0543 84.9797 33.5073 85.1049 32.9658C85.2472 32.3525 85.3608 31.7308 85.497 31.0652ZM93.5361 27.5808C93.3878 27.5201 93.2668 27.4927 93.1726 27.4277C93.0134 27.3183 92.9258 27.3681 92.8821 27.531C92.8329 27.7127 92.8049 27.9005 92.7575 28.0816C92.6189 28.6062 92.4475 29.1228 92.3387 29.6534C92.1837 30.4076 92.0835 31.1734 91.9431 31.9301C91.7164 33.1578 91.576 34.3874 91.7212 35.6376C91.7425 35.8248 91.799 35.9105 91.9722 35.9445C92.1606 35.9804 92.3199 35.9463 92.3959 35.7579C92.4591 35.6005 92.5211 35.4358 92.5393 35.2699C92.6451 34.2986 92.7228 33.3225 92.8383 32.3513C92.9392 31.501 93.0747 30.6538 93.1993 29.8065C93.3093 29.0541 93.426 28.3029 93.5361 27.5808ZM116.893 31.36C117.23 30.1001 117.535 28.8298 117.939 27.5906C118.398 26.1769 118.913 24.7778 119.47 23.3987C119.935 22.2494 120.472 21.122 121.228 20.1258C121.482 19.7921 121.806 19.5083 122.124 19.2299C122.478 18.9194 122.799 19.0792 122.959 19.6153C123.241 20.5646 123.007 21.4988 122.819 22.4287C122.601 23.5039 122.13 24.4799 121.599 25.4293C121.135 26.2577 120.707 27.111 120.203 27.9151C119.635 28.8231 119.014 29.699 118.389 30.5693C117.994 31.1199 117.554 31.6372 117.125 32.1629C117.03 32.279 116.901 32.3659 116.787 32.4668C116.751 32.4443 116.716 32.4218 116.68 32.3993C116.75 32.0535 116.801 31.701 116.893 31.36ZM114.897 29.7293C115.189 29.722 115.395 29.6382 115.485 29.3951C115.637 28.9799 115.787 28.5636 115.912 28.1406C116.097 27.5091 116.256 26.8679 116.437 26.2352C116.629 25.5667 116.83 24.9005 117.039 24.2374C117.107 24.0211 116.982 23.919 116.828 23.9439C116.596 23.9804 116.369 24.0496 116.228 24.3025C115.738 25.1825 115.46 26.1392 115.186 27.0958C114.975 27.827 114.81 28.5703 114.626 29.3088C114.556 29.5889 114.662 29.7287 114.897 29.7293ZM141.442 10.3297C141.337 11.2893 141.217 12.2537 140.999 13.1906C140.709 14.4383 140.375 15.6803 139.956 16.8898C139.509 18.1761 138.972 19.4354 138.42 20.6825C137.88 21.906 137.286 23.107 136.687 24.3031C136.346 24.9832 135.949 25.6359 135.573 26.2996C135.198 26.9609 134.818 27.6191 134.436 28.278C134.381 28.374 134.313 28.4627 134.249 28.5557C134.214 28.5515 134.178 28.5466 134.143 28.5411C134.143 28.3746 134.127 28.2075 134.145 28.0427C134.293 26.7804 134.437 25.518 134.601 24.2575C134.719 23.3537 134.85 22.4512 135.006 21.5529C135.187 20.5051 135.373 19.456 135.608 18.4204C135.935 16.9692 136.27 15.5162 136.676 14.0856C137.159 12.3783 137.824 10.7342 138.724 9.19854C139.209 8.36813 139.751 7.57097 140.505 6.94848C140.895 6.62685 141.16 6.72464 141.292 7.21135C141.57 8.24105 141.557 9.2877 141.442 10.3297ZM124.197 25.5691C124.517 25.6013 124.526 25.6068 124.698 25.3552C124.788 25.2257 124.839 25.0695 124.909 24.9267C125.297 24.1365 125.557 23.3088 125.67 22.4323C125.762 21.72 125.854 21.012 125.678 20.3002C125.603 19.9964 125.53 19.6912 125.449 19.3886C125.44 19.3509 125.391 19.3029 125.355 19.2974C125.131 19.2609 124.895 19.1844 124.687 19.2306C124.595 19.2518 124.543 19.5253 124.507 19.6912C124.484 19.7958 124.521 19.9143 124.538 20.0267C124.564 20.2127 124.599 20.3975 124.626 20.5841C124.747 21.4271 124.745 22.2743 124.624 23.1143C124.537 23.7263 124.392 24.3292 124.279 24.9388C124.242 25.1412 124.225 25.3472 124.197 25.5691ZM133.885 15.2953C133.264 15.3275 133.037 15.5131 132.915 16.0482C132.893 16.1492 132.847 16.245 132.821 16.3448C132.629 17.0675 132.421 17.7852 132.256 18.5134C132.13 19.0719 132.061 19.642 131.967 20.2079C131.85 20.9129 131.721 21.6185 131.624 22.3266C131.548 22.8949 131.504 23.468 131.463 24.0405C131.448 24.2478 131.451 24.469 131.512 24.6623C131.543 24.7577 131.717 24.8373 131.84 24.8635C131.928 24.8817 132.083 24.8294 132.13 24.7577C132.341 24.4411 132.484 24.0922 132.507 23.702C132.514 23.5622 132.543 23.4236 132.566 23.2832C132.694 22.4755 132.82 21.6671 132.954 20.8606C133.075 20.1361 133.203 19.4129 133.33 18.6902C133.411 18.2265 133.502 17.7652 133.577 17.3002C133.684 16.6423 133.78 15.9819 133.885 15.2953ZM86.2469 23.3586C86.3229 23.2723 86.3801 23.1605 86.473 23.1112C86.7058 22.9878 86.7058 22.7836 86.6694 22.5819C86.5508 21.9242 86.1917 21.4082 85.6829 20.9895C85.6623 20.9718 85.6331 20.9615 85.6082 20.9506C85.3669 20.846 85.1712 20.95 84.9992 21.1007C84.8004 21.2745 84.9165 21.4331 85.0436 21.5875C85.1438 21.7109 85.2441 21.8355 85.3329 21.9674C85.6355 22.4232 85.9339 22.8827 86.2469 23.3586ZM107.593 15.3303C107.705 14.9107 107.802 14.5599 107.892 14.2077C108.102 13.3761 108.298 12.5413 108.523 11.7138C108.652 11.2395 108.683 10.7694 108.587 10.2888C108.554 10.1212 108.482 10.0322 108.329 10.091C108.311 10.2718 108.309 10.4288 108.276 10.5785C108.23 10.7849 108.158 10.986 108.1 11.1901C108.051 11.3714 108.01 11.5562 107.957 11.7371C107.803 12.2509 107.635 12.7609 107.49 13.277C107.279 14.0299 107.087 14.7881 106.873 15.5407C106.781 15.8697 106.828 15.9363 107.167 15.8804C107.241 15.8689 107.316 15.855 107.39 15.8419C108.25 15.6911 109.11 15.5498 109.966 15.3845C110.187 15.3417 110.421 15.2715 110.569 15.0535C109.572 14.9689 108.611 15.2802 107.593 15.3303ZM144.439 13.1004C144.506 12.9304 144.549 12.739 144.648 12.5833C145.039 11.9653 145.212 11.2669 145.363 10.573C145.657 9.22802 145.775 7.8593 145.67 6.48773C145.619 5.82877 145.433 5.18021 145.295 4.5294C145.184 4.00446 144.983 3.52024 144.642 3.09151C144.241 2.58778 143.87 2.04437 143.118 2.12563C142.914 2.14739 142.721 2.27198 142.464 2.37306C142.792 2.83065 143.115 3.23762 143.389 3.67547C143.642 4.0794 143.92 4.49396 144.047 4.94317C144.246 5.65075 144.371 6.38665 144.448 7.11854C144.518 7.79621 144.534 8.48908 144.481 9.16803C144.407 10.1286 144.263 11.0843 144.12 12.038C144.061 12.4283 143.947 12.8023 144.439 13.1004Z" fill="#F9F9F9"/>
<path id="Vector_4" fill-rule="evenodd" clip-rule="evenodd" d="M29.3068 16.4679C29.0384 16.2587 28.7357 16.086 28.4268 15.9477C27.9117 15.717 27.3903 15.4856 26.8526 15.3303C26.1393 15.125 25.4135 14.9343 24.6816 14.8444C23.7686 14.7327 22.843 14.6833 21.9263 14.8667C21.3259 14.9864 20.7158 15.0652 20.128 15.2318C19.0348 15.5415 18.0157 16.0574 17.0537 16.6766C16.2914 17.1677 15.5558 17.7099 14.8419 18.2757C14.3549 18.6623 13.896 19.0992 13.4756 19.566C12.6065 20.5312 11.7918 21.5516 11.1866 22.7301C10.8123 23.4595 10.4167 24.1845 10.1288 24.9522C9.69245 26.1148 9.364 27.3134 9.25387 28.5739C9.14648 29.7968 9.19893 30.9892 9.59496 32.1513C9.93787 33.1596 10.4233 34.0707 11.0846 34.9009C11.7711 35.7621 12.5475 36.4994 13.4212 37.126C13.9794 37.5265 14.5605 37.8942 15.1516 38.237C15.7437 38.5804 16.375 38.8484 16.963 39.1997C17.7549 39.6708 18.5324 40.1734 19.2972 40.6949C20.1498 41.2759 20.8832 42.0101 21.5128 42.8464C21.8888 43.346 22.3014 43.8237 22.5204 44.4455C22.6369 44.7755 22.8803 45.0551 22.9993 45.3833C23.4217 46.5429 23.7076 47.7378 23.6481 48.9923C23.6155 49.6754 23.6056 50.375 23.4536 51.0332C23.2495 51.9242 23.0097 52.8176 22.5361 53.6108C22.1844 54.1973 21.8843 54.8288 21.4733 55.3655C20.7708 56.2881 19.9809 57.1219 19.0127 57.7595C18.1958 58.2986 17.3657 58.7739 16.4242 59.0383C15.1453 59.3956 13.8659 59.4157 12.5921 59.0942C11.665 58.8596 10.7885 58.4852 10.0445 57.8033C9.32425 57.142 8.82867 56.3573 8.60635 55.3788C8.2229 53.6995 8.68408 52.1448 9.32298 50.6521C9.71123 49.7453 10.2739 48.9212 10.7412 48.0496C10.9298 47.6989 11.1202 47.3367 11.2292 46.9532C11.5009 45.9911 10.9258 45.3231 10.0929 45.1541C9.3197 44.9955 8.56453 45.1523 7.83927 45.4319C6.59405 45.9145 5.53451 46.6997 4.68106 47.7664C4.1171 48.4714 3.55442 49.188 3.08084 49.9593C2.27426 51.2733 1.63481 52.6839 1.30388 54.2204C1.13771 54.9935 0.999194 55.7836 0.951848 56.5713C0.884202 57.7194 1.07517 58.8413 1.45454 59.9293C1.76372 60.8166 2.22186 61.6122 2.81876 62.299C3.24421 62.7895 3.77243 63.1809 4.25161 63.6209C5.05612 64.36 6.04681 64.7289 7.02004 65.1057C7.99474 65.4832 9.03027 65.6363 10.063 65.708C10.7553 65.7573 11.454 65.6697 12.1494 65.671C13.0523 65.6728 13.9264 65.4777 14.7917 65.2528C15.4925 65.0686 16.1795 64.8201 16.8633 64.5709C17.5453 64.3223 18.2285 64.0695 18.8864 63.7583C19.4514 63.4909 19.9908 63.1578 20.5228 62.8199C21.1975 62.3926 21.8815 61.9696 22.5118 61.4755C23.3025 60.8531 24.0715 60.1924 24.7978 59.4886C25.9253 58.3971 26.8757 57.1432 27.7339 55.8C28.5691 54.4933 29.2478 53.1033 29.7768 51.6398C30.1511 50.6053 30.4198 49.5241 30.6836 48.4514C31.0329 47.0316 31.1362 45.5766 31.0888 44.113C31.0544 43.0616 30.8809 42.032 30.6312 41.0085C30.3897 40.0172 30.0126 39.0928 29.5516 38.2066C28.9016 36.9564 28.0671 35.8375 27.0679 34.8839C25.9574 33.8233 24.7575 32.88 23.3999 32.1817C22.76 31.8535 22.1317 31.4986 21.4864 31.1825C20.7224 30.8087 19.9282 30.4994 19.1774 30.0988C18.3341 29.6491 17.5171 29.144 16.7035 28.6359C16.1706 28.3028 15.8027 27.7905 15.5831 27.1882C15.2757 26.3464 15.3122 25.4584 15.4418 24.5978C15.634 23.3209 16.0608 22.1296 16.8567 21.1122C17.6901 20.0468 18.7448 19.4293 20.0544 19.3132C20.7698 19.25 21.4512 19.3843 22.1307 19.6438C22.7838 19.8918 23.3574 20.2692 23.8643 20.7354C24.4215 21.2471 24.9328 21.816 25.3023 22.5162C25.6447 23.1635 25.9311 23.7719 25.6728 24.5583C25.5168 25.0354 25.6269 25.5508 26.0688 25.8638C26.5535 26.2097 27.1127 26.2729 27.6691 26.1337C28.2741 25.9842 28.8259 25.7137 29.3458 25.3205C30.0543 24.7844 30.5882 24.1462 30.9688 23.3118C31.3588 22.4578 31.5943 21.5917 31.5632 20.598C31.6439 19.6882 31.318 18.8476 30.8536 18.0605C30.4639 17.4011 29.8895 16.9232 29.3068 16.4679ZM12.5847 60.469C12.4034 60.3906 12.2332 60.3067 12.0554 60.2435C11.5059 60.046 10.9369 59.8946 10.4058 59.657C9.43135 59.2206 8.63692 58.518 7.86151 57.8008C7.6731 57.6258 7.48773 57.6744 7.35578 57.7814C7.26407 57.8561 7.20839 58.0834 7.25142 58.1995C7.50316 58.8717 7.97037 59.3926 8.54703 59.795C9.15456 60.2204 9.78003 60.6319 10.5172 60.8063C10.9657 60.9133 11.4182 61.0075 11.8738 61.0713C12.0017 61.0889 12.271 60.9522 12.2669 60.9345C12.2041 60.661 12.5011 60.6446 12.5847 60.469ZM26.7395 39.5984C26.8848 39.4981 26.9864 39.3967 27.1085 39.3492C27.2883 39.2793 27.3174 39.2161 27.2082 39.0417C27.0031 38.708 26.8335 38.3537 26.6451 38.0109C26.4913 37.7319 26.3614 37.4341 26.17 37.1825C25.4376 36.2265 24.5702 35.4017 23.6041 34.6827C22.4931 33.8555 21.2708 33.2368 19.9726 32.7633C19.7194 32.6704 19.4282 32.77 19.3372 32.9755C19.2575 33.1541 19.378 33.4532 19.5958 33.5808C19.8116 33.7072 20.0385 33.816 20.2563 33.94C20.8124 34.2561 21.3771 34.5599 21.9188 34.8991C22.8864 35.505 23.7988 36.1882 24.5915 37.0135C25.0676 37.5089 25.5247 38.0231 25.9674 38.5488C26.2472 38.88 26.484 39.2477 26.7395 39.5984ZM17.6874 17.8436C18.9824 17.55 20.1754 17.1702 21.3959 17.0339C22.6213 16.8971 23.8746 17.0038 25.1157 17.0038C25.0838 16.4808 24.8331 16.1914 24.3565 16.1283C24.1339 16.0979 23.9062 16.0997 23.6857 16.0602C22.8266 15.908 21.9833 16.0323 21.132 16.1521C19.9197 16.3233 18.8804 16.8708 17.8839 17.5306C17.8059 17.5828 17.7727 17.7032 17.6874 17.8436Z" fill="#F9F9F9"/>
</g>
</g>
<defs>
<clipPath id="clip0_1_75">
<rect width="150" height="68.6183" fill="white" transform="translate(0 0.325439)"/>
</clipPath>
</defs>
</svg>
