<svg width="38" height="29" viewBox="0 0 38 29" fill="none" xmlns="http://www.w3.org/2000/svg">
<path id="Vector" d="M32.8182 7.41464H27.6364V0.505554H3.45455C1.55455 0.505554 0 2.0601 0 3.9601V22.9601H3.45455C3.45455 25.8965 5.7 28.1419 8.63636 28.1419C11.5727 28.1419 13.8182 25.8965 13.8182 22.9601H24.1818C24.1818 25.8965 26.4273 28.1419 29.3636 28.1419C32.3 28.1419 34.5455 25.8965 34.5455 22.9601H38V14.3237L32.8182 7.41464ZM8.63636 25.551C7.25455 25.551 6.04545 24.3419 6.04545 22.9601C6.04545 21.5783 7.25455 20.3692 8.63636 20.3692C10.0182 20.3692 11.2273 21.5783 11.2273 22.9601C11.2273 24.3419 10.0182 25.551 8.63636 25.551ZM24.1818 19.5055H12.4364C11.5727 18.4692 10.1909 17.7783 8.63636 17.7783C7.08182 17.7783 5.7 18.4692 4.83636 19.5055H3.45455V3.9601H24.1818V19.5055ZM29.3636 25.551C27.9818 25.551 26.7727 24.3419 26.7727 22.9601C26.7727 21.5783 27.9818 20.3692 29.3636 20.3692C30.7455 20.3692 31.9545 21.5783 31.9545 22.9601C31.9545 24.3419 30.7455 25.551 29.3636 25.551ZM27.6364 14.3237V10.0056H31.9545L35.4091 14.3237H27.6364ZM8.63636 12.5965V9.14192H19V12.5965H8.63636Z" fill="#3E5D9D"/>
</svg>
